  0
SECTION
  2
HEADER
  9
$ACADVER
  1
AC1006
  9
$EXTMIN
 10
0.000000
 20
0.000000
 30
0.000000
  9
$EXTMAX
 10
1152.000000
 20
336.000000
 30
0.000000
  0
ENDSEC
  0
SECTION
  2
ENTITIES
  0
POLYLINE
  8
0
 66
1
 70
1
  0
VERTEX
  8
0
 10
686.220311
 20
305.250000
 42
0.008174
  0
VERTEX
  8
0
 10
682.967357
 20
299.886554
 42
0.012765
  0
VERTEX
  8
0
 10
680.362537
 20
295.155775
 42
0.014881
  0
VERTEX
  8
0
 10
678.375742
 20
291.021948
 42
0.026576
  0
VERTEX
  8
0
 10
677.029427
 20
287.500000
 42
-0.008426
  0
VERTEX
  8
0
 10
676.481849
 20
285.895258
 42
-0.009646
  0
VERTEX
  8
0
 10
675.903350
 20
284.381250
 42
-0.008887
  0
VERTEX
  8
0
 10
675.366324
 20
283.118269
 42
-0.053031
  0
VERTEX
  8
0
 10
675.007565
 20
282.500000
 42
0.053692
  0
VERTEX
  8
0
 10
674.683310
 20
281.939495
 42
0.015186
  0
VERTEX
  8
0
 10
674.302370
 20
281.004296
 42
0.015117
  0
VERTEX
  8
0
 10
673.933773
 20
279.914738
 42
0.015440
  0
VERTEX
  8
0
 10
673.634521
 20
278.812497
 42
-0.028160
  0
VERTEX
  8
0
 10
673.205383
 20
277.377208
 42
-0.006831
  0
VERTEX
  8
0
 10
672.331919
 20
275.060152
 42
-0.006985
  0
VERTEX
  8
0
 10
671.255043
 20
272.426365
 42
-0.006897
  0
VERTEX
  8
0
 10
670.100615
 20
269.812497
 42
0.013775
  0
VERTEX
  8
0
 10
665.409869
 20
258.783636
 42
0.005493
  0
VERTEX
  8
0
 10
659.566274
 20
243.426842
 42
0.005522
  0
VERTEX
  8
0
 10
654.027329
 20
227.846463
 42
0.012765
  0
VERTEX
  8
0
 10
650.297771
 20
216.000000
 42
-0.007735
  0
VERTEX
  8
0
 10
649.231132
 20
212.489062
 42
-0.007453
  0
VERTEX
  8
0
 10
648.043721
 20
208.968750
 42
-0.007401
  0
VERTEX
  8
0
 10
646.905701
 20
205.899109
 42
-0.026782
  0
VERTEX
  8
0
 10
646.049906
 20
204.000000
 42
0.026062
  0
VERTEX
  8
0
 10
645.268284
 20
202.272133
 42
0.011449
  0
VERTEX
  8
0
 10
644.407464
 20
199.912500
 42
0.011295
  0
VERTEX
  8
0
 10
643.606398
 20
197.361979
 42
0.014859
  0
VERTEX
  8
0
 10
642.998206
 20
195.000000
 42
-0.005528
  0
VERTEX
  8
0
 10
642.462854
 20
192.747657
 42
-0.005680
  0
VERTEX
  8
0
 10
641.882445
 20
190.528125
 42
-0.005513
  0
VERTEX
  8
0
 10
641.336129
 20
188.615009
 42
-0.023842
  0
VERTEX
  8
0
 10
640.945644
 20
187.500000
 42
0.021663
  0
VERTEX
  8
0
 10
640.598511
 20
186.522451
 42
0.009610
  0
VERTEX
  8
0
 10
640.221917
 20
185.206250
 42
0.009491
  0
VERTEX
  8
0
 10
639.875836
 20
183.794947
 42
0.012642
  0
VERTEX
  8
0
 10
639.618441
 20
182.500000
 42
-0.006296
  0
VERTEX
  8
0
 10
638.950056
 20
178.898988
 42
-0.002874
  0
VERTEX
  8
0
 10
637.990897
 20
174.212118
 42
-0.002855
  0
VERTEX
  8
0
 10
636.930458
 20
169.316618
 42
-0.004119
  0
VERTEX
  8
0
 10
635.932182
 20
165.000000
 42
0.016096
  0
VERTEX
  8
0
 10
635.479890
 20
162.806164
 42
0.006938
  0
VERTEX
  8
0
 10
635.012220
 20
159.856696
 42
0.006857
  0
VERTEX
  8
0
 10
634.600700
 20
156.700717
 42
0.009014
  0
VERTEX
  8
0
 10
634.316730
 20
153.810029
 42
0.000000
  0
VERTEX
  8
0
 10
633.781091
 20
147.120057
 42
0.000000
  0
VERTEX
  8
0
 10
638.581271
 20
141.560029
 42
0.022531
  0
VERTEX
  8
0
 10
641.904517
 20
138.044153
 42
0.094947
  0
VERTEX
  8
0
 10
644.322830
 20
136.462596
 42
0.143321
  0
VERTEX
  8
0
 10
646.608808
 20
136.221343
 42
0.078118
  0
VERTEX
  8
0
 10
649.295106
 20
137.157936
 42
0.043054
  0
VERTEX
  8
0
 10
651.267273
 20
138.442868
 42
0.044834
  0
VERTEX
  8
0
 10
652.961347
 20
140.030951
 42
0.016735
  0
VERTEX
  8
0
 10
655.333538
 20
142.878358
 42
0.001248
  0
VERTEX
  8
0
 10
661.517073
 20
150.868146
 42
-0.004973
  0
VERTEX
  8
0
 10
664.903719
 20
155.177334
 42
-0.004543
  0
VERTEX
  8
0
 10
668.477963
 20
159.551256
 42
-0.004546
  0
VERTEX
  8
0
 10
671.741586
 20
163.400103
 42
-0.014744
  0
VERTEX
  8
0
 10
674.003652
 20
165.868146
 42
-0.024951
  0
VERTEX
  8
0
 10
680.856819
 20
172.246642
 42
-0.011638
  0
VERTEX
  8
0
 10
690.323003
 20
179.844972
 42
-0.005882
  0
VERTEX
  8
0
 10
699.942721
 20
187.027250
 42
-0.158705
  0
VERTEX
  8
0
 10
702.930175
 20
188.000000
 42
0.076980
  0
VERTEX
  8
0
 10
703.338885
 20
188.063300
 42
0.089812
  0
VERTEX
  8
0
 10
703.685739
 20
188.246733
 42
0.100768
  0
VERTEX
  8
0
 10
703.917614
 20
188.519614
 42
0.126538
  0
VERTEX
  8
0
 10
704.000000
 20
188.839940
 42
-0.307900
  0
VERTEX
  8
0
 10
704.662976
 20
189.814485
 42
-0.021359
  0
VERTEX
  8
0
 10
707.966310
 20
190.958268
 42
-0.028548
  0
VERTEX
  8
0
 10
711.502819
 20
191.799532
 42
-0.079411
  0
VERTEX
  8
0
 10
714.048310
 20
191.845275
 42
-0.083485
  0
VERTEX
  8
0
 10
715.215732
 20
191.475042
 42
-0.069266
  0
VERTEX
  8
0
 10
716.283937
 20
190.725273
 42
-0.058689
  0
VERTEX
  8
0
 10
717.249172
 20
189.586824
 42
-0.036469
  0
VERTEX
  8
0
 10
718.109892
 20
188.059185
 42
-0.028427
  0
VERTEX
  8
0
 10
718.983555
 20
185.892933
 42
-0.095053
  0
VERTEX
  8
0
 10
719.191828
 20
184.381993
 42
-0.072065
  0
VERTEX
  8
0
 10
718.854040
 20
182.684596
 42
-0.011922
  0
VERTEX
  8
0
 10
717.662755
 20
179.559185
 42
-0.006571
  0
VERTEX
  8
0
 10
716.825320
 20
177.584772
 42
-0.009109
  0
VERTEX
  8
0
 10
716.019497
 20
175.839261
 42
-0.006171
  0
VERTEX
  8
0
 10
715.303864
 20
174.405900
 42
-0.105063
  0
VERTEX
  8
0
 10
714.972418
 20
174.000000
 42
0.065215
  0
VERTEX
  8
0
 10
714.586602
 20
173.597209
 42
0.002394
  0
VERTEX
  8
0
 10
713.340786
 20
171.884375
 42
0.004330
  0
VERTEX
  8
0
 10
711.891992
 20
169.835096
 42
0.003023
  0
VERTEX
  8
0
 10
710.292113
 20
167.500000
 42
-0.054879
  0
VERTEX
  8
0
 10
699.499295
 20
154.797269
 42
-0.029298
  0
VERTEX
  8
0
 10
683.695532
 20
141.532311
 42
-0.026783
  0
VERTEX
  8
0
 10
667.574699
 20
130.828184
 42
-0.133942
  0
VERTEX
  8
0
 10
657.206576
 20
128.000000
 42
0.058595
  0
VERTEX
  8
0
 10
653.822241
 20
127.602022
 42
0.094406
  0
VERTEX
  8
0
 10
651.182533
 20
126.415701
 42
0.132675
  0
VERTEX
  8
0
 10
649.727376
 20
124.675287
 42
0.187111
  0
VERTEX
  8
0
 10
649.602162
 20
122.678116
 42
0.054759
  0
VERTEX
  8
0
 10
650.990883
 20
119.540951
 42
0.036732
  0
VERTEX
  8
0
 10
653.206217
 20
116.299873
 42
0.037092
  0
VERTEX
  8
0
 10
655.823366
 20
113.474507
 42
0.063959
  0
VERTEX
  8
0
 10
658.424998
 20
111.610325
 42
0.067359
  0
VERTEX
  8
0
 10
661.268339
 20
110.541760
 42
0.058997
  0
VERTEX
  8
0
 10
664.426833
 20
110.202153
 42
0.035646
  0
VERTEX
  8
0
 10
668.791957
 20
110.560932
 42
0.008431
  0
VERTEX
  8
0
 10
676.000000
 20
111.799205
 42
0.051218
  0
VERTEX
  8
0
 10
681.631597
 20
113.475684
 42
0.031403
  0
VERTEX
  8
0
 10
687.860535
 20
116.519017
 42
0.022858
  0
VERTEX
  8
0
 10
695.450649
 20
121.309012
 42
0.008916
  0
VERTEX
  8
0
 10
705.500000
 20
128.582409
 42
0.028500
  0
VERTEX
  8
0
 10
713.467514
 20
135.311286
 42
0.015652
  0
VERTEX
  8
0
 10
722.460305
 20
144.380005
 42
0.009568
  0
VERTEX
  8
0
 10
730.610385
 20
153.473232
 42
0.166252
  0
VERTEX
  8
0
 10
732.073088
 20
157.112837
 42
-0.070624
  0
VERTEX
  8
0
 10
732.211027
 20
157.816203
 42
-0.020540
  0
VERTEX
  8
0
 10
732.617300
 20
158.846081
 42
-0.020204
  0
VERTEX
  8
0
 10
733.175851
 20
159.981367
 42
-0.020337
  0
VERTEX
  8
0
 10
733.823088
 20
161.065312
 42
-0.000021
  0
VERTEX
  8
0
 10
734.624435
 20
162.291086
 42
-0.000010
  0
VERTEX
  8
0
 10
735.667247
 20
163.886003
 42
-0.000010
  0
VERTEX
  8
0
 10
736.763720
 20
165.562851
 42
-0.000013
  0
VERTEX
  8
0
 10
737.746262
 20
167.065312
 42
0.018636
  0
VERTEX
  8
0
 10
738.606368
 20
168.493993
 42
0.020162
  0
VERTEX
  8
0
 10
739.333782
 20
169.946373
 42
0.020140
  0
VERTEX
  8
0
 10
739.853780
 20
171.234314
 42
0.085468
  0
VERTEX
  8
0
 10
739.996262
 20
172.050000
 42
-0.062655
  0
VERTEX
  8
0
 10
740.083405
 20
172.729448
 42
-0.038987
  0
VERTEX
  8
0
 10
740.344582
 20
173.490368
 42
-0.038636
  0
VERTEX
  8
0
 10
740.725949
 20
174.212636
 42
-0.055647
  0
VERTEX
  8
0
 10
741.176785
 20
174.776785
 42
0.152370
  0
VERTEX
  8
0
 10
741.687336
 20
175.750358
 42
0.016899
  0
VERTEX
  8
0
 10
742.059113
 20
178.265109
 42
0.017421
  0
VERTEX
  8
0
 10
742.320429
 20
181.602471
 42
0.008966
  0
VERTEX
  8
0
 10
742.426785
 20
185.793571
 42
0.008197
  0
VERTEX
  8
0
 10
742.376682
 20
191.389924
 42
0.033996
  0
VERTEX
  8
0
 10
742.062014
 20
194.752392
 42
0.048219
  0
VERTEX
  8
0
 10
741.356430
 20
197.430180
 42
0.030208
  0
VERTEX
  8
0
 10
740.050715
 20
200.398579
 42
0.035034
  0
VERTEX
  8
0
 10
738.732342
 20
202.574030
 42
0.016285
  0
VERTEX
  8
0
 10
736.740150
 20
205.208588
 42
0.016042
  0
VERTEX
  8
0
 10
734.459910
 20
207.850294
 42
0.021543
  0
VERTEX
  8
0
 10
732.220127
 20
210.081793
 42
0.013473
  0
VERTEX
  8
0
 10
729.167382
 20
212.724465
 42
0.050715
  0
VERTEX
  8
0
 10
727.059977
 20
214.120987
 42
0.070341
  0
VERTEX
  8
0
 10
725.091737
 20
214.824850
 42
0.044703
  0
VERTEX
  8
0
 10
722.669413
 20
215.101317
 42
0.013792
  0
VERTEX
  8
0
 10
716.541154
 20
215.081169
 42
0.030890
  0
VERTEX
  8
0
 10
711.907751
 20
214.650740
 42
0.033363
  0
VERTEX
  8
0
 10
707.585883
 20
213.679330
 42
0.018897
  0
VERTEX
  8
0
 10
702.500000
 20
211.962355
 42
-0.001622
  0
VERTEX
  8
0
 10
701.493566
 20
211.583385
 42
-0.000584
  0
VERTEX
  8
0
 10
700.059375
 20
211.050559
 42
-0.000580
  0
VERTEX
  8
0
 10
698.486614
 20
210.470415
 42
-0.000688
  0
VERTEX
  8
0
 10
697.000000
 20
209.926325
 42
0.017658
  0
VERTEX
  8
0
 10
695.466443
 20
209.305274
 42
0.011658
  0
VERTEX
  8
0
 10
693.748404
 20
208.489279
 42
0.011737
  0
VERTEX
  8
0
 10
692.113099
 20
207.616603
 42
0.022190
  0
VERTEX
  8
0
 10
690.845630
 20
206.825404
 42
-0.018226
  0
VERTEX
  8
0
 10
689.745744
 20
206.126645
 42
-0.020297
  0
VERTEX
  8
0
 10
688.635955
 20
205.536212
 42
-0.020104
  0
VERTEX
  8
0
 10
687.656682
 20
205.112749
 42
-0.092246
  0
VERTEX
  8
0
 10
687.050748
 20
205.000000
 42
0.175417
  0
VERTEX
  8
0
 10
686.320646
 20
204.735723
 42
0.004171
  0
VERTEX
  8
0
 10
683.512447
 20
202.356250
 42
0.008669
  0
VERTEX
  8
0
 10
680.254884
 20
199.449075
 42
0.005719
  0
VERTEX
  8
0
 10
676.607036
 20
196.000000
 42
-0.005871
  0
VERTEX
  8
0
 10
672.957017
 20
192.550973
 42
-0.008877
  0
VERTEX
  8
0
 10
669.692678
 20
189.643750
 42
-0.004363
  0
VERTEX
  8
0
 10
666.880471
 20
187.269679
 42
-0.174848
  0
VERTEX
  8
0
 10
666.132865
 20
187.000000
 42
-0.400687
  0
VERTEX
  8
0
 10
665.462204
 20
187.640242
 42
-0.063133
  0
VERTEX
  8
0
 10
665.621847
 20
189.639110
 42
-0.024804
  0
VERTEX
  8
0
 10
666.605977
 20
193.408339
 42
-0.003553
  0
VERTEX
  8
0
 10
669.055376
 20
201.000000
 42
-0.000763
  0
VERTEX
  8
0
 10
671.784363
 20
209.214842
 42
-0.004197
  0
VERTEX
  8
0
 10
673.300431
 20
213.631594
 42
-0.007516
  0
VERTEX
  8
0
 10
674.327615
 20
216.410338
 42
-0.023378
  0
VERTEX
  8
0
 10
675.134044
 20
218.236431
 42
0.021418
  0
VERTEX
  8
0
 10
675.465526
 20
218.979158
 42
0.019211
  0
VERTEX
  8
0
 10
675.745625
 20
219.774711
 42
0.019638
  0
VERTEX
  8
0
 10
675.941441
 20
220.508319
 42
0.055449
  0
VERTEX
  8
0
 10
676.000000
 20
221.034737
 42
-0.082105
  0
VERTEX
  8
0
 10
676.104451
 20
221.666531
 42
-0.009850
  0
VERTEX
  8
0
 10
676.587500
 20
223.000671
 42
-0.011516
  0
VERTEX
  8
0
 10
677.234160
 20
224.573330
 42
-0.009233
  0
VERTEX
  8
0
 10
678.000000
 20
226.236136
 42
0.011422
  0
VERTEX
  8
0
 10
678.765709
 20
227.917996
 42
0.013356
  0
VERTEX
  8
0
 10
679.412500
 20
229.548325
 42
0.012351
  0
VERTEX
  8
0
 10
679.885807
 20
230.947148
 42
0.075535
  0
VERTEX
  8
0
 10
680.000000
 20
231.698728
 42
-0.073347
  0
VERTEX
  8
0
 10
680.114228
 20
232.473218
 42
-0.010140
  0
VERTEX
  8
0
 10
680.616775
 20
234.025256
 42
-0.011443
  0
VERTEX
  8
0
 10
681.295725
 20
235.849437
 42
-0.009467
  0
VERTEX
  8
0
 10
682.099660
 20
237.760898
 42
0.001419
  0
VERTEX
  8
0
 10
682.961858
 20
239.721961
 42
0.001403
  0
VERTEX
  8
0
 10
683.816234
 20
241.695389
 42
0.001376
  0
VERTEX
  8
0
 10
684.554582
 20
243.427152
 42
0.005421
  0
VERTEX
  8
0
 10
684.994860
 20
244.500000
 42
-0.007265
  0
VERTEX
  8
0
 10
685.459289
 20
245.619925
 42
-0.001455
  0
VERTEX
  8
0
 10
686.321870
 20
247.601562
 42
-0.001538
  0
VERTEX
  8
0
 10
687.339620
 20
249.901944
 42
-0.001435
  0
VERTEX
  8
0
 10
688.395200
 20
252.250000
 42
-0.000023
  0
VERTEX
  8
0
 10
689.581129
 20
254.867568
 42
-0.000014
  0
VERTEX
  8
0
 10
691.000605
 20
258.000000
 42
-0.000014
  0
VERTEX
  8
0
 10
692.420287
 20
261.132427
 42
-0.000023
  0
VERTEX
  8
0
 10
693.606861
 20
263.750000
 42
0.000405
  0
VERTEX
  8
0
 10
694.743306
 20
266.262085
 42
0.000294
  0
VERTEX
  8
0
 10
696.004066
 20
269.059375
 42
0.000297
  0
VERTEX
  8
0
 10
697.197420
 20
271.715489
 42
0.000652
  0
VERTEX
  8
0
 10
698.106861
 20
273.750000
 42
-0.000079
  0
VERTEX
  8
0
 10
698.969038
 20
275.684721
 42
-0.000046
  0
VERTEX
  8
0
 10
700.001502
 20
278.000000
 42
-0.000046
  0
VERTEX
  8
0
 10
701.034476
 20
280.315268
 42
-0.000079
  0
VERTEX
  8
0
 10
701.898252
 20
282.250000
 42
0.000995
  0
VERTEX
  8
0
 10
705.369127
 20
290.062681
 42
0.007438
  0
VERTEX
  8
0
 10
706.953685
 20
293.797957
 42
0.013386
  0
VERTEX
  8
0
 10
707.796075
 20
296.038956
 42
0.084314
  0
VERTEX
  8
0
 10
707.995373
 20
297.239102
 42
0.175440
  0
VERTEX
  8
0
 10
707.285379
 20
299.178030
 42
0.028728
  0
VERTEX
  8
0
 10
704.499265
 20
302.134154
 42
0.032204
  0
VERTEX
  8
0
 10
701.105296
 20
304.953454
 42
0.055046
  0
VERTEX
  8
0
 10
697.910162
 20
306.777793
 42
-0.015381
  0
VERTEX
  8
0
 10
696.412010
 20
307.482329
 42
-0.022723
  0
VERTEX
  8
0
 10
695.148610
 20
308.198640
 42
-0.019362
  0
VERTEX
  8
0
 10
694.192930
 20
308.852366
 42
-0.237347
  0
VERTEX
  8
0
 10
694.000000
 20
309.235900
 42
0.261622
  0
VERTEX
  8
0
 10
693.834916
 20
309.529807
 42
0.059698
  0
VERTEX
  8
0
 10
693.296247
 20
309.775546
 42
0.046997
  0
VERTEX
  8
0
 10
692.522089
 20
309.944453
 42
0.030232
  0
VERTEX
  8
0
 10
691.604246
 20
310.000000
 42
0.103602
  0
VERTEX
  8
0
 10
690.308683
 20
309.728642
 42
0.077653
  0
VERTEX
  8
0
 10
689.076600
 20
308.942511
 42
0.052702
  0
VERTEX
  8
0
 10
687.772108
 20
307.521194
 42
0.018933
  0
SEQEND
  0
POLYLINE
  8
0
 66
1
 70
1
  0
VERTEX
  8
0
 10
419.456319
 20
306.136431
 42
0.052175
  0
VERTEX
  8
0
 10
418.019862
 20
305.040202
 42
0.051205
  0
VERTEX
  8
0
 10
416.831318
 20
303.663994
 42
0.046826
  0
VERTEX
  8
0
 10
415.864686
 20
301.961762
 42
0.032590
  0
VERTEX
  8
0
 10
415.090343
 20
299.890169
 42
-0.000271
  0
VERTEX
  8
0
 10
414.527789
 20
298.026088
 42
-0.000229
  0
VERTEX
  8
0
 10
413.930858
 20
296.055237
 42
-0.000231
  0
VERTEX
  8
0
 10
413.384946
 20
294.258799
 42
-0.000647
  0
VERTEX
  8
0
 10
413.000000
 20
293.000000
 42
0.002247
  0
VERTEX
  8
0
 10
412.617469
 20
291.734629
 42
0.000787
  0
VERTEX
  8
0
 10
412.078671
 20
289.912500
 42
0.000781
  0
VERTEX
  8
0
 10
411.492236
 20
287.906148
 42
0.000914
  0
VERTEX
  8
0
 10
410.942096
 20
286.000000
 42
-0.010398
  0
VERTEX
  8
0
 10
410.387701
 20
284.207447
 42
-0.012400
  0
VERTEX
  8
0
 10
409.788462
 20
282.542812
 42
-0.011209
  0
VERTEX
  8
0
 10
409.220051
 20
281.170764
 42
-0.075290
  0
VERTEX
  8
0
 10
408.826120
 20
280.550000
 42
0.083836
  0
VERTEX
  8
0
 10
408.508388
 20
280.029998
 42
0.031979
  0
VERTEX
  8
0
 10
408.242673
 20
279.220774
 42
0.030571
  0
VERTEX
  8
0
 10
408.060887
 20
278.286671
 42
0.032783
  0
VERTEX
  8
0
 10
408.000000
 20
277.359017
 42
-0.040867
  0
VERTEX
  8
0
 10
407.926061
 20
276.455898
 42
-0.043300
  0
VERTEX
  8
0
 10
407.706250
 20
275.594775
 42
-0.047457
  0
VERTEX
  8
0
 10
407.384107
 20
274.894786
 42
-0.123387
  0
VERTEX
  8
0
 10
407.000000
 20
274.500000
 42
0.111983
  0
VERTEX
  8
0
 10
406.616421
 20
274.123104
 42
0.050144
  0
VERTEX
  8
0
 10
406.293750
 20
273.489364
 42
0.046179
  0
VERTEX
  8
0
 10
406.074072
 20
272.720919
 42
0.046572
  0
VERTEX
  8
0
 10
406.000000
 20
271.927414
 42
-0.037841
  0
VERTEX
  8
0
 10
405.933714
 20
271.052803
 42
-0.023099
  0
VERTEX
  8
0
 10
405.730451
 20
270.036935
 42
-0.023091
  0
VERTEX
  8
0
 10
405.434090
 20
269.043244
 42
-0.037550
  0
VERTEX
  8
0
 10
405.082386
 20
268.236431
 42
0.029422
  0
VERTEX
  8
0
 10
404.554359
 20
267.076903
 42
0.002344
  0
VERTEX
  8
0
 10
403.354524
 20
263.925702
 42
0.003168
  0
VERTEX
  8
0
 10
401.963684
 20
260.148142
 42
0.002424
  0
VERTEX
  8
0
 10
400.488867
 20
256.000000
 42
-0.001034
  0
VERTEX
  8
0
 10
397.777996
 20
248.307623
 42
-0.003395
  0
VERTEX
  8
0
 10
395.942516
 20
243.242836
 42
-0.002845
  0
VERTEX
  8
0
 10
393.881332
 20
237.769472
 42
-0.000564
  0
VERTEX
  8
0
 10
390.126035
 20
228.000000
 42
0.003611
  0
VERTEX
  8
0
 10
388.525798
 20
223.759992
 42
0.004194
  0
VERTEX
  8
0
 10
387.066613
 20
219.703125
 42
0.003743
  0
VERTEX
  8
0
 10
385.886668
 20
216.251543
 42
0.024878
  0
VERTEX
  8
0
 10
385.397819
 20
214.500000
 42
-0.019617
  0
VERTEX
  8
0
 10
385.035449
 20
213.146828
 42
-0.011385
  0
VERTEX
  8
0
 10
384.500221
 20
211.551267
 42
-0.011369
  0
VERTEX
  8
0
 10
383.889895
 20
209.973774
 42
-0.018762
  0
VERTEX
  8
0
 10
383.294950
 20
208.674525
 42
0.036126
  0
VERTEX
  8
0
 10
382.685159
 20
207.210710
 42
0.012896
  0
VERTEX
  8
0
 10
382.023041
 20
205.044988
 42
0.012719
  0
VERTEX
  8
0
 10
381.416335
 20
202.623273
 42
0.014676
  0
VERTEX
  8
0
 10
380.965227
 20
200.286345
 42
-0.018690
  0
VERTEX
  8
0
 10
380.512584
 20
198.038555
 42
-0.020065
  0
VERTEX
  8
0
 10
379.901913
 20
195.884213
 42
-0.020076
  0
VERTEX
  8
0
 10
379.232352
 20
194.086230
 42
-0.083591
  0
VERTEX
  8
0
 10
378.616784
 20
193.111820
 42
0.095859
  0
VERTEX
  8
0
 10
376.302598
 20
189.243175
 42
0.007610
  0
VERTEX
  8
0
 10
372.382867
 20
177.900807
 42
0.010987
  0
VERTEX
  8
0
 10
368.502509
 20
165.155671
 42
0.013135
  0
VERTEX
  8
0
 10
365.429994
 20
152.985746
 42
0.012298
  0
VERTEX
  8
0
 10
362.539781
 20
138.462364
 42
0.037267
  0
VERTEX
  8
0
 10
361.560958
 20
128.438800
 42
0.053295
  0
VERTEX
  8
0
 10
362.218565
 20
120.595424
 42
0.059415
  0
VERTEX
  8
0
 10
364.524802
 20
113.366632
 42
0.046810
  0
VERTEX
  8
0
 10
366.667704
 20
109.633251
 42
0.057159
  0
VERTEX
  8
0
 10
369.348033
 20
106.631053
 42
0.065629
  0
VERTEX
  8
0
 10
372.246755
 20
104.661874
 42
0.116940
  0
VERTEX
  8
0
 10
375.038021
 20
104.000000
 42
0.189096
  0
VERTEX
  8
0
 10
378.351622
 20
105.299647
 42
0.107705
  0
VERTEX
  8
0
 10
380.847130
 20
108.880397
 42
0.055060
  0
VERTEX
  8
0
 10
382.766285
 20
115.453698
 42
0.013873
  0
VERTEX
  8
0
 10
384.394140
 20
126.500000
 42
-0.013116
  0
VERTEX
  8
0
 10
384.867955
 20
129.749294
 42
-0.008000
  0
VERTEX
  8
0
 10
385.589010
 20
133.559531
 42
-0.006547
  0
VERTEX
  8
0
 10
386.592688
 20
138.131023
 42
-0.003508
  0
VERTEX
  8
0
 10
387.945320
 20
143.750000
 42
0.000361
  0
VERTEX
  8
0
 10
388.415357
 20
145.649960
 42
0.000233
  0
VERTEX
  8
0
 10
388.957629
 20
147.853125
 42
0.000234
  0
VERTEX
  8
0
 10
389.486104
 20
150.008897
 42
0.000440
  0
VERTEX
  8
0
 10
389.910438
 20
151.750000
 42
-0.002248
  0
VERTEX
  8
0
 10
391.582223
 20
158.503347
 42
-0.003900
  0
VERTEX
  8
0
 10
393.039574
 20
164.094822
 42
-0.003719
  0
VERTEX
  8
0
 10
394.249661
 20
168.463751
 42
-0.027673
  0
VERTEX
  8
0
 10
394.953892
 20
170.500000
 42
0.016625
  0
VERTEX
  8
0
 10
395.348410
 20
171.564058
 42
0.004789
  0
VERTEX
  8
0
 10
395.887568
 20
173.234375
 42
0.004812
  0
VERTEX
  8
0
 10
396.459647
 20
175.130471
 42
0.005107
  0
VERTEX
  8
0
 10
396.983482
 20
177.000000
 42
-0.008018
  0
VERTEX
  8
0
 10
397.513526
 20
178.850174
 42
-0.007943
  0
VERTEX
  8
0
 10
398.104186
 20
180.688202
 42
-0.007836
  0
VERTEX
  8
0
 10
398.671490
 20
182.279339
 42
-0.030303
  0
VERTEX
  8
0
 10
399.097464
 20
183.236431
 42
0.043824
  0
VERTEX
  8
0
 10
399.443808
 20
184.074846
 42
0.022574
  0
VERTEX
  8
0
 10
399.734880
 20
185.173387
 42
0.022255
  0
VERTEX
  8
0
 10
399.934160
 20
186.338732
 42
0.031226
  0
VERTEX
  8
0
 10
400.000000
 20
187.391930
 42
-0.053801
  0
VERTEX
  8
0
 10
400.128706
 20
188.584600
 42
-0.019661
  0
VERTEX
  8
0
 10
400.556341
 20
190.229719
 42
-0.019227
  0
VERTEX
  8
0
 10
401.168928
 20
192.006103
 42
-0.021805
  0
VERTEX
  8
0
 10
401.893926
 20
193.655499
 42
0.016157
  0
VERTEX
  8
0
 10
402.707740
 20
195.451623
 42
0.008936
  0
VERTEX
  8
0
 10
403.590452
 20
197.692553
 42
0.008903
  0
VERTEX
  8
0
 10
404.404691
 20
199.997568
 42
0.014154
  0
VERTEX
  8
0
 10
405.009780
 20
202.000000
 42
-0.018669
  0
VERTEX
  8
0
 10
406.058895
 20
205.361947
 42
-0.010245
  0
VERTEX
  8
0
 10
407.579608
 20
209.398345
 42
-0.010065
  0
VERTEX
  8
0
 10
409.333709
 20
213.536526
 42
-0.013210
  0
VERTEX
  8
0
 10
411.109440
 20
217.236431
 42
0.020596
  0
VERTEX
  8
0
 10
411.450327
 20
217.974448
 42
0.019159
  0
VERTEX
  8
0
 10
411.738398
 20
218.755842
 42
0.019550
  0
VERTEX
  8
0
 10
411.940471
 20
219.469863
 42
0.059244
  0
VERTEX
  8
0
 10
412.000000
 20
219.970501
 42
-0.093647
  0
VERTEX
  8
0
 10
412.122389
 20
220.618232
 42
-0.005437
  0
VERTEX
  8
0
 10
412.881250
 20
222.494319
 42
-0.008101
  0
VERTEX
  8
0
 10
413.850807
 20
224.716268
 42
-0.005861
  0
VERTEX
  8
0
 10
415.000000
 20
227.161283
 42
0.010235
  0
VERTEX
  8
0
 10
416.148665
 20
229.661762
 42
0.012402
  0
VERTEX
  8
0
 10
417.118750
 20
232.053298
 42
0.011041
  0
VERTEX
  8
0
 10
417.836204
 20
234.091433
 42
0.079262
  0
VERTEX
  8
0
 10
418.000000
 20
235.118196
 42
-0.051316
  0
VERTEX
  8
0
 10
418.074143
 20
235.838709
 42
-0.048142
  0
VERTEX
  8
0
 10
418.293750
 20
236.545406
 42
-0.051667
  0
VERTEX
  8
0
 10
418.616733
 20
237.135582
 42
-0.103679
  0
VERTEX
  8
0
 10
419.000000
 20
237.500000
 42
0.103230
  0
VERTEX
  8
0
 10
419.383251
 20
237.863755
 42
0.051737
  0
VERTEX
  8
0
 10
419.706250
 20
238.451674
 42
0.048243
  0
VERTEX
  8
0
 10
419.925855
 20
239.155153
 42
0.051589
  0
VERTEX
  8
0
 10
420.000000
 20
239.871864
 42
-0.071366
  0
VERTEX
  8
0
 10
420.139733
 20
240.845872
 42
-0.013463
  0
VERTEX
  8
0
 10
420.692672
 20
242.560795
 42
-0.014142
  0
VERTEX
  8
0
 10
421.455315
 20
244.544037
 42
-0.012546
  0
VERTEX
  8
0
 10
422.358033
 20
246.562847
 42
0.003659
  0
VERTEX
  8
0
 10
424.194686
 20
250.481841
 42
0.003174
  0
VERTEX
  8
0
 10
426.064289
 20
254.617279
 42
0.003272
  0
VERTEX
  8
0
 10
427.749914
 20
258.477568
 42
0.006893
  0
VERTEX
  8
0
 10
428.997160
 20
261.500000
 42
-0.007400
  0
VERTEX
  8
0
 10
429.456011
 20
262.608734
 42
-0.001565
  0
VERTEX
  8
0
 10
430.290969
 20
264.528125
 42
-0.001638
  0
VERTEX
  8
0
 10
431.273449
 20
266.747653
 42
-0.001554
  0
VERTEX
  8
0
 10
432.287706
 20
269.000000
 42
0.006124
  0
VERTEX
  8
0
 10
435.853155
 20
277.115031
 42
0.015403
  0
VERTEX
  8
0
 10
438.194145
 20
283.134176
 42
0.020318
  0
VERTEX
  8
0
 10
439.592413
 20
287.662621
 42
0.064805
  0
VERTEX
  8
0
 10
440.000000
 20
290.794157
 42
0.101672
  0
VERTEX
  8
0
 10
439.494398
 20
293.254894
 42
0.027821
  0
VERTEX
  8
0
 10
437.723130
 20
296.821700
 42
0.027021
  0
VERTEX
  8
0
 10
435.223474
 20
300.716558
 42
0.025751
  0
VERTEX
  8
0
 10
432.280551
 20
304.385006
 42
0.069397
  0
VERTEX
  8
0
 10
429.384768
 20
306.847133
 42
0.108000
  0
VERTEX
  8
0
 10
426.319778
 20
307.969062
 42
0.106099
  0
VERTEX
  8
0
 10
423.026360
 20
307.719356
 42
0.065224
  0
SEQEND
  0
POLYLINE
  8
0
 66
1
 70
1
  0
VERTEX
  8
0
 10
90.955062
 20
298.916032
 42
0.097074
  0
VERTEX
  8
0
 10
90.476231
 20
297.356259
 42
0.012598
  0
VERTEX
  8
0
 10
90.199595
 20
293.867084
 42
0.012555
  0
VERTEX
  8
0
 10
90.066608
 20
289.253336
 42
0.006265
  0
VERTEX
  8
0
 10
90.118152
 20
283.410872
 42
-0.006441
  0
VERTEX
  8
0
 10
90.163138
 20
278.099936
 42
-0.010526
  0
VERTEX
  8
0
 10
90.048501
 20
273.598943
 42
-0.005920
  0
VERTEX
  8
0
 10
89.832953
 20
269.909401
 42
-0.188082
  0
VERTEX
  8
0
 10
89.452228
 20
269.104904
 42
-0.160711
  0
VERTEX
  8
0
 10
88.655720
 20
268.731613
 42
-0.005254
  0
VERTEX
  8
0
 10
85.107842
 20
268.343152
 42
-0.009575
  0
VERTEX
  8
0
 10
80.858870
 20
268.005079
 42
-0.006457
  0
VERTEX
  8
0
 10
76.000000
 20
267.774908
 42
0.019777
  0
VERTEX
  8
0
 10
66.260596
 20
267.053169
 42
0.060361
  0
VERTEX
  8
0
 10
59.823907
 20
265.518242
 42
0.075729
  0
VERTEX
  8
0
 10
54.772601
 20
262.720278
 42
0.045530
  0
VERTEX
  8
0
 10
49.739012
 20
258.049714
 42
0.083362
  0
VERTEX
  8
0
 10
44.986472
 20
250.560363
 42
0.078558
  0
VERTEX
  8
0
 10
42.814564
 20
241.773536
 42
0.021361
  0
VERTEX
  8
0
 10
42.131304
 20
225.823847
 42
0.000947
  0
VERTEX
  8
0
 10
42.230727
 20
170.475692
 42
0.000000
  0
VERTEX
  8
0
 10
42.500000
 20
97.500000
 42
0.000000
  0
VERTEX
  8
0
 10
44.766523
 20
92.900144
 42
0.043521
  0
VERTEX
  8
0
 10
47.256139
 20
88.791762
 42
0.033816
  0
VERTEX
  8
0
 10
50.622087
 20
84.790712
 42
0.033835
  0
VERTEX
  8
0
 10
54.493966
 20
81.282620
 42
0.043756
  0
VERTEX
  8
0
 10
58.500000
 20
78.652016
 42
0.103376
  0
VERTEX
  8
0
 10
63.133748
 20
77.281515
 42
0.013974
  0
VERTEX
  8
0
 10
73.313046
 20
76.735378
 42
0.005364
  0
VERTEX
  8
0
 10
92.711495
 20
76.445806
 42
0.000301
  0
VERTEX
  8
0
 10
152.922625
 20
76.229225
 42
0.000698
  0
VERTEX
  8
0
 10
221.065096
 20
76.120253
 42
0.016135
  0
VERTEX
  8
0
 10
240.484466
 20
76.743098
 42
0.062270
  0
VERTEX
  8
0
 10
250.680849
 20
78.690412
 42
0.102532
  0
VERTEX
  8
0
 10
258.281018
 20
83.016160
 42
0.030573
  0
VERTEX
  8
0
 10
260.282029
 20
85.007256
 42
0.019417
  0
VERTEX
  8
0
 10
262.370209
 20
87.548072
 42
0.019350
  0
VERTEX
  8
0
 10
264.268907
 20
90.262375
 42
0.028816
  0
VERTEX
  8
0
 10
265.693850
 20
92.785561
 42
0.000000
  0
VERTEX
  8
0
 10
268.500000
 20
98.500000
 42
0.000000
  0
VERTEX
  8
0
 10
268.500000
 20
172.000000
 42
0.000000
  0
VERTEX
  8
0
 10
268.500000
 20
245.500000
 42
0.000000
  0
VERTEX
  8
0
 10
265.709915
 20
251.181603
 42
0.038750
  0
VERTEX
  8
0
 10
263.147144
 20
255.516287
 42
0.043409
  0
VERTEX
  8
0
 10
260.031121
 20
259.229563
 42
0.042427
  0
VERTEX
  8
0
 10
256.255199
 20
262.416863
 42
0.034236
  0
VERTEX
  8
0
 10
251.722196
 20
265.182480
 42
0.043103
  0
VERTEX
  8
0
 10
248.947549
 20
266.333474
 42
0.038388
  0
VERTEX
  8
0
 10
245.907137
 20
267.046425
 42
0.024082
  0
VERTEX
  8
0
 10
241.712782
 20
267.490306
 42
0.005898
  0
VERTEX
  8
0
 10
234.774957
 20
267.806085
 42
-0.006428
  0
VERTEX
  8
0
 10
229.239044
 20
268.063939
 42
-0.014715
  0
VERTEX
  8
0
 10
225.078671
 20
268.434481
 42
-0.013133
  0
VERTEX
  8
0
 10
222.013772
 20
268.880542
 42
-0.178687
  0
VERTEX
  8
0
 10
221.052727
 20
269.436468
 42
-0.149666
  0
VERTEX
  8
0
 10
220.645547
 20
270.411486
 42
-0.004901
  0
VERTEX
  8
0
 10
220.266868
 20
274.671034
 42
-0.008984
  0
VERTEX
  8
0
 10
219.956533
 20
279.760612
 42
-0.006083
  0
VERTEX
  8
0
 10
219.777770
 20
285.569003
 42
0.000000
  0
VERTEX
  8
0
 10
219.500000
 20
300.500000
 42
0.000000
  0
VERTEX
  8
0
 10
155.789138
 20
300.757388
 42
0.000000
  0
VERTEX
  8
0
 10
92.078276
 20
301.014777
 42
0.000000
  0
SEQEND
  0
POLYLINE
  8
0
 66
1
 70
1
  0
VERTEX
  8
0
 10
214.550535
 20
293.654677
 42
-0.036367
  0
VERTEX
  8
0
 10
214.755114
 20
292.485357
 42
-0.014349
  0
VERTEX
  8
0
 10
214.872382
 20
290.855032
 42
-0.014113
  0
VERTEX
  8
0
 10
214.898815
 20
289.079401
 42
-0.017150
  0
VERTEX
  8
0
 10
214.819587
 20
287.417402
 42
-0.034536
  0
VERTEX
  8
0
 10
214.485673
 20
285.222522
 42
-0.101328
  0
VERTEX
  8
0
 10
213.862470
 20
283.834406
 42
-0.091077
  0
VERTEX
  8
0
 10
212.702405
 20
282.720300
 42
-0.024619
  0
VERTEX
  8
0
 10
210.500000
 20
281.417081
 42
0.001602
  0
VERTEX
  8
0
 10
208.118719
 20
280.152164
 42
0.000231
  0
VERTEX
  8
0
 10
203.268750
 20
277.553062
 42
0.000262
  0
VERTEX
  8
0
 10
197.536246
 20
274.473727
 42
0.000224
  0
VERTEX
  8
0
 10
191.500000
 20
271.223662
 42
-0.001782
  0
VERTEX
  8
0
 10
172.632545
 20
261.140632
 42
-0.010939
  0
VERTEX
  8
0
 10
162.778659
 20
256.192607
 42
-0.016191
  0
VERTEX
  8
0
 10
156.637001
 20
253.515205
 42
-0.159870
  0
VERTEX
  8
0
 10
153.861332
 20
253.343822
 42
-0.050144
  0
VERTEX
  8
0
 10
152.291202
 20
253.926939
 42
-0.002332
  0
VERTEX
  8
0
 10
147.199891
 20
256.452359
 42
-0.003842
  0
VERTEX
  8
0
 10
141.184294
 20
259.529375
 42
-0.002747
  0
VERTEX
  8
0
 10
134.500000
 20
263.060320
 42
0.000160
  0
VERTEX
  8
0
 10
127.294921
 20
266.914176
 42
0.000137
  0
VERTEX
  8
0
 10
119.703125
 20
270.969077
 42
0.000138
  0
VERTEX
  8
0
 10
112.801454
 20
274.650491
 42
0.000395
  0
VERTEX
  8
0
 10
108.000000
 20
277.205061
 42
-0.002536
  0
VERTEX
  8
0
 10
104.270026
 20
279.210103
 42
-0.003440
  0
VERTEX
  8
0
 10
100.923438
 20
281.060952
 42
-0.002310
  0
VERTEX
  8
0
 10
98.134834
 20
282.645354
 42
-0.038075
  0
VERTEX
  8
0
 10
97.250000
 20
283.247358
 42
-0.196992
  0
VERTEX
  8
0
 10
96.398165
 20
284.776481
 42
-0.017759
  0
VERTEX
  8
0
 10
96.024153
 20
289.232270
 42
-0.017900
  0
VERTEX
  8
0
 10
95.968580
 20
293.702164
 42
-0.192847
  0
VERTEX
  8
0
 10
96.666667
 20
295.333333
 42
-0.195794
  0
VERTEX
  8
0
 10
97.315346
 20
295.606598
 42
-0.000176
  0
VERTEX
  8
0
 10
114.267320
 20
295.804167
 42
-0.001755
  0
VERTEX
  8
0
 10
133.241441
 20
295.952025
 42
-0.001071
  0
VERTEX
  8
0
 10
155.647615
 20
296.000000
 42
0.000000
  0
VERTEX
  8
0
 10
213.961896
 20
296.000000
 42
0.000000
  0
SEQEND
  0
POLYLINE
  8
0
 66
1
 70
1
  0
VERTEX
  8
0
 10
124.000000
 20
262.748291
 42
-0.000995
  0
VERTEX
  8
0
 10
127.309134
 20
260.985094
 42
-0.000681
  0
VERTEX
  8
0
 10
131.059375
 20
258.970692
 42
-0.000687
  0
VERTEX
  8
0
 10
134.667426
 20
257.019930
 42
-0.001392
  0
VERTEX
  8
0
 10
137.500000
 20
255.473196
 42
0.002614
  0
VERTEX
  8
0
 10
140.231434
 20
253.990346
 42
0.001556
  0
VERTEX
  8
0
 10
143.498919
 20
252.251604
 42
0.001557
  0
VERTEX
  8
0
 10
146.766667
 20
250.538737
 42
0.002690
  0
VERTEX
  8
0
 10
149.496321
 20
249.137350
 42
0.000000
  0
VERTEX
  8
0
 10
155.492643
 20
246.099532
 42
0.000000
  0
VERTEX
  8
0
 10
168.996321
 20
253.165061
 42
0.001191
  0
VERTEX
  8
0
 10
174.243329
 20
255.926391
 42
0.001766
  0
VERTEX
  8
0
 10
178.827044
 20
258.373372
 42
0.000774
  0
VERTEX
  8
0
 10
182.732021
 20
260.483568
 42
0.035536
  0
VERTEX
  8
0
 10
183.500000
 20
260.973676
 42
-0.036357
  0
VERTEX
  8
0
 10
184.276248
 20
261.467272
 42
-0.000675
  0
VERTEX
  8
0
 10
188.543312
 20
263.756157
 42
-0.001655
  0
VERTEX
  8
0
 10
193.534106
 20
266.403382
 42
-0.001106
  0
VERTEX
  8
0
 10
199.264467
 20
269.402469
 42
-0.004498
  0
VERTEX
  8
0
 10
206.255002
 20
272.961869
 42
-0.016814
  0
VERTEX
  8
0
 10
210.740056
 20
275.009808
 42
-0.018619
  0
VERTEX
  8
0
 10
213.753445
 20
276.135400
 42
-0.400757
  0
VERTEX
  8
0
 10
214.536832
 20
275.764613
 42
-0.087465
  0
VERTEX
  8
0
 10
214.734456
 20
274.747572
 42
-0.001527
  0
VERTEX
  8
0
 10
214.815528
 20
269.110382
 42
-0.003807
  0
VERTEX
  8
0
 10
214.839965
 20
262.528003
 42
-0.002522
  0
VERTEX
  8
0
 10
214.772365
 20
254.970526
 42
0.000000
  0
VERTEX
  8
0
 10
214.500000
 20
235.500000
 42
0.000000
  0
VERTEX
  8
0
 10
155.250000
 20
235.242070
 42
0.000000
  0
VERTEX
  8
0
 10
96.000000
 20
234.984140
 42
0.000000
  0
VERTEX
  8
0
 10
96.000000
 20
255.325403
 42
-0.002858
  0
VERTEX
  8
0
 10
96.044821
 20
263.167847
 42
-0.004551
  0
VERTEX
  8
0
 10
96.182527
 20
269.873948
 42
-0.001170
  0
VERTEX
  8
0
 10
96.369110
 20
275.707408
 42
-0.190009
  0
VERTEX
  8
0
 10
96.621370
 20
276.288036
 42
-0.302454
  0
VERTEX
  8
0
 10
97.143641
 20
276.392811
 42
-0.005465
  0
VERTEX
  8
0
 10
99.888622
 20
275.231097
 42
-0.011573
  0
VERTEX
  8
0
 10
103.135459
 20
273.724579
 42
-0.007219
  0
VERTEX
  8
0
 10
106.871370
 20
271.817382
 42
-0.000072
  0
VERTEX
  8
0
 10
111.105333
 20
269.577504
 42
-0.000051
  0
VERTEX
  8
0
 10
115.874715
 20
267.052877
 42
-0.000051
  0
VERTEX
  8
0
 10
120.443031
 20
264.633496
 42
-0.000106
  0
SEQEND
  0
POLYLINE
  8
0
 66
1
 70
1
  0
VERTEX
  8
0
 10
90.223190
 20
250.000000
 42
-0.003814
  0
VERTEX
  8
0
 10
90.468194
 20
245.119918
 42
-0.005518
  0
VERTEX
  8
0
 10
90.604162
 20
240.804688
 42
-0.002977
  0
VERTEX
  8
0
 10
90.657010
 20
237.162113
 42
-0.087294
  0
VERTEX
  8
0
 10
90.504574
 20
236.250000
 42
-0.242437
  0
VERTEX
  8
0
 10
89.890164
 20
235.671435
 42
-0.034854
  0
VERTEX
  8
0
 10
88.148759
 20
235.300298
 42
-0.026244
  0
VERTEX
  8
0
 10
85.513077
 20
235.068218
 42
-0.008838
  0
VERTEX
  8
0
 10
81.653830
 20
235.000000
 42
0.018975
  0
VERTEX
  8
0
 10
75.981944
 20
234.784674
 42
0.083965
  0
VERTEX
  8
0
 10
72.751200
 20
233.982308
 42
0.198493
  0
VERTEX
  8
0
 10
71.366551
 20
232.548445
 42
0.187775
  0
VERTEX
  8
0
 10
71.356740
 20
230.512735
 42
0.302728
  0
VERTEX
  8
0
 10
72.695308
 20
229.564226
 42
0.002611
  0
VERTEX
  8
0
 10
85.886637
 20
229.256312
 42
0.004064
  0
VERTEX
  8
0
 10
107.090378
 20
229.044482
 42
0.000466
  0
VERTEX
  8
0
 10
154.846170
 20
229.000000
 42
0.000482
  0
VERTEX
  8
0
 10
202.161297
 20
229.045624
 42
0.003974
  0
VERTEX
  8
0
 10
223.693823
 20
229.258277
 42
0.002861
  0
VERTEX
  8
0
 10
237.100830
 20
229.573988
 42
0.215445
  0
VERTEX
  8
0
 10
239.000000
 20
230.500000
 42
0.204852
  0
VERTEX
  8
0
 10
239.562064
 20
232.393100
 42
0.257665
  0
VERTEX
  8
0
 10
238.516237
 20
233.858465
 42
0.085691
  0
VERTEX
  8
0
 10
235.204664
 20
234.795016
 42
0.017863
  0
VERTEX
  8
0
 10
229.158762
 20
235.212398
 42
0.000000
  0
VERTEX
  8
0
 10
220.500000
 20
235.500000
 42
0.000000
  0
VERTEX
  8
0
 10
220.220504
 20
248.199030
 42
-0.013223
  0
VERTEX
  8
0
 10
220.265944
 20
258.434314
 42
-0.196442
  0
VERTEX
  8
0
 10
221.694533
 20
261.643402
 42
-0.191812
  0
VERTEX
  8
0
 10
224.977489
 20
262.973736
 42
-0.012522
  0
VERTEX
  8
0
 10
235.432770
 20
262.774441
 42
-0.006597
  0
VERTEX
  8
0
 10
242.090934
 20
262.392540
 42
-0.037653
  0
VERTEX
  8
0
 10
245.593745
 20
261.878320
 42
-0.056283
  0
VERTEX
  8
0
 10
248.330542
 20
260.930248
 42
-0.026424
  0
VERTEX
  8
0
 10
251.624319
 20
259.136141
 42
-0.042703
  0
VERTEX
  8
0
 10
255.308107
 20
256.410812
 42
-0.043713
  0
VERTEX
  8
0
 10
258.443998
 20
253.118832
 42
-0.043595
  0
VERTEX
  8
0
 10
260.966956
 20
249.322985
 42
-0.042007
  0
VERTEX
  8
0
 10
262.829801
 20
245.100777
 42
-0.076938
  0
VERTEX
  8
0
 10
263.726815
 20
240.113979
 42
-0.003960
  0
VERTEX
  8
0
 10
263.997502
 20
223.691266
 42
-0.001637
  0
VERTEX
  8
0
 10
264.089698
 20
206.250955
 42
-0.260470
  0
VERTEX
  8
0
 10
263.176438
 20
204.609045
 42
-0.247538
  0
VERTEX
  8
0
 10
262.624606
 20
204.571321
 42
-0.016475
  0
VERTEX
  8
0
 10
261.147656
 20
205.284793
 42
-0.020714
  0
VERTEX
  8
0
 10
259.373891
 20
206.310729
 42
-0.013789
  0
VERTEX
  8
0
 10
257.426438
 20
207.624217
 42
0.077899
  0
VERTEX
  8
0
 10
249.521994
 20
211.594513
 42
0.061965
  0
VERTEX
  8
0
 10
240.127237
 20
213.364509
 42
0.015078
  0
VERTEX
  8
0
 10
222.682033
 20
213.928075
 42
0.000535
  0
VERTEX
  8
0
 10
155.460781
 20
214.000000
 42
0.000329
  0
VERTEX
  8
0
 10
96.801696
 20
213.961425
 42
0.005009
  0
VERTEX
  8
0
 10
76.495587
 20
213.731273
 42
0.012321
  0
VERTEX
  8
0
 10
65.632777
 20
213.231320
 42
0.083777
  0
VERTEX
  8
0
 10
60.431458
 20
211.970619
 42
0.022162
  0
VERTEX
  8
0
 10
58.372021
 20
210.977637
 42
0.014617
  0
VERTEX
  8
0
 10
56.093962
 20
209.664750
 42
0.014719
  0
VERTEX
  8
0
 10
53.949263
 20
208.255031
 42
0.027408
  0
VERTEX
  8
0
 10
52.313756
 20
206.970619
 42
-0.013084
  0
VERTEX
  8
0
 10
50.947528
 20
205.832957
 42
-0.017223
  0
VERTEX
  8
0
 10
49.640738
 20
204.872619
 42
-0.014754
  0
VERTEX
  8
0
 10
48.517434
 20
204.152924
 42
-0.135903
  0
VERTEX
  8
0
 10
47.965204
 20
204.000000
 42
-0.396445
  0
VERTEX
  8
0
 10
47.537784
 20
204.402093
 42
-0.003330
  0
VERTEX
  8
0
 10
47.267900
 20
209.359812
 42
-0.008397
  0
VERTEX
  8
0
 10
47.075097
 20
215.591338
 42
-0.003812
  0
VERTEX
  8
0
 10
47.021962
 20
223.750000
 42
-0.002710
  0
VERTEX
  8
0
 10
47.097314
 20
235.286482
 42
-0.018222
  0
VERTEX
  8
0
 10
47.374213
 20
241.004190
 42
-0.036821
  0
VERTEX
  8
0
 10
47.970675
 20
244.737271
 42
-0.048437
  0
VERTEX
  8
0
 10
49.084030
 20
248.000000
 42
-0.029840
  0
VERTEX
  8
0
 10
50.977302
 20
251.590015
 42
-0.043170
  0
VERTEX
  8
0
 10
53.092673
 20
254.483675
 42
-0.043619
  0
VERTEX
  8
0
 10
55.655763
 20
256.949571
 42
-0.031340
  0
VERTEX
  8
0
 10
58.899486
 20
259.246896
 42
-0.049473
  0
VERTEX
  8
0
 10
62.567544
 20
261.040127
 42
-0.048054
  0
VERTEX
  8
0
 10
66.552215
 20
262.099333
 42
-0.033867
  0
VERTEX
  8
0
 10
71.747770
 20
262.600018
 42
-0.010874
  0
VERTEX
  8
0
 10
79.500000
 20
262.651314
 42
0.000000
  0
VERTEX
  8
0
 10
89.500000
 20
262.500000
 42
0.000000
  0
SEQEND
  0
POLYLINE
  8
0
 66
1
 70
1
  0
VERTEX
  8
0
 10
249.403402
 20
206.563264
 42
-0.043980
  0
VERTEX
  8
0
 10
253.024447
 20
204.350751
 42
-0.037271
  0
VERTEX
  8
0
 10
256.423714
 20
201.423714
 42
-0.037271
  0
VERTEX
  8
0
 10
259.350751
 20
198.024447
 42
-0.043980
  0
VERTEX
  8
0
 10
261.563264
 20
194.403402
 42
-0.081889
  0
VERTEX
  8
0
 10
262.696954
 20
190.701305
 42
-0.021853
  0
VERTEX
  8
0
 10
263.253230
 20
184.540528
 42
-0.009129
  0
VERTEX
  8
0
 10
263.561865
 20
173.556935
 42
-0.000861
  0
VERTEX
  8
0
 10
263.780556
 20
146.600034
 42
-0.001970
  0
VERTEX
  8
0
 10
263.858847
 20
114.653468
 42
-0.025394
  0
VERTEX
  8
0
 10
263.235637
 20
102.740620
 42
-0.070496
  0
VERTEX
  8
0
 10
261.491864
 20
95.730524
 42
-0.076351
  0
VERTEX
  8
0
 10
257.895420
 20
89.689294
 42
-0.029707
  0
VERTEX
  8
0
 10
256.411545
 20
88.092536
 42
-0.018342
  0
VERTEX
  8
0
 10
254.493879
 20
86.390324
 42
-0.018376
  0
VERTEX
  8
0
 10
252.467913
 20
84.842096
 42
-0.031188
  0
VERTEX
  8
0
 10
250.653273
 20
83.720978
 42
0.000000
  0
VERTEX
  8
0
 10
246.500000
 20
81.500000
 42
0.000000
  0
VERTEX
  8
0
 10
157.184538
 20
81.229083
 42
-0.000716
  0
VERTEX
  8
0
 10
115.850228
 20
81.162911
 42
-0.002255
  0
VERTEX
  8
0
 10
88.119845
 20
81.283317
 42
-0.001197
  0
VERTEX
  8
0
 10
67.691294
 20
81.513058
 42
-0.062430
  0
VERTEX
  8
0
 10
63.792540
 20
82.055863
 42
-0.091392
  0
VERTEX
  8
0
 10
59.470777
 20
84.118577
 42
-0.039342
  0
VERTEX
  8
0
 10
54.593384
 20
88.278988
 42
-0.039361
  0
VERTEX
  8
0
 10
50.399959
 20
93.185081
 42
-0.085525
  0
VERTEX
  8
0
 10
48.216116
 20
97.616020
 42
-0.060915
  0
VERTEX
  8
0
 10
47.618217
 20
101.193318
 42
-0.004763
  0
VERTEX
  8
0
 10
47.284830
 20
110.880978
 42
-0.004842
  0
VERTEX
  8
0
 10
47.074155
 20
124.750869
 42
-0.001501
  0
VERTEX
  8
0
 10
47.021962
 20
145.616020
 42
-0.000908
  0
VERTEX
  8
0
 10
47.083074
 20
171.995421
 42
-0.008597
  0
VERTEX
  8
0
 10
47.324120
 20
183.296505
 42
-0.019148
  0
VERTEX
  8
0
 10
47.819632
 20
189.734953
 42
-0.078312
  0
VERTEX
  8
0
 10
48.867341
 20
193.500000
 42
-0.045431
  0
VERTEX
  8
0
 10
51.950568
 20
198.903620
 42
-0.063483
  0
VERTEX
  8
0
 10
55.680998
 20
203.021219
 42
-0.065604
  0
VERTEX
  8
0
 10
60.222921
 20
205.976702
 42
-0.052870
  0
VERTEX
  8
0
 10
65.717502
 20
207.921657
 42
-0.056259
  0
VERTEX
  8
0
 10
68.751567
 20
208.294193
 42
-0.000425
  0
VERTEX
  8
0
 10
93.801871
 20
208.517759
 42
-0.001552
  0
VERTEX
  8
0
 10
122.910970
 20
208.662469
 42
-0.000929
  0
VERTEX
  8
0
 10
157.500000
 20
208.662782
 42
-0.000354
  0
VERTEX
  8
0
 10
213.569761
 20
208.519358
 42
-0.004894
  0
VERTEX
  8
0
 10
233.860645
 20
208.254477
 42
-0.010317
  0
VERTEX
  8
0
 10
244.892532
 20
207.774571
 42
-0.099443
  0
SEQEND
  0
POLYLINE
  8
0
 66
1
 70
1
  0
VERTEX
  8
0
 10
566.925110
 20
225.652474
 42
0.029959
  0
VERTEX
  8
0
 10
561.086715
 20
222.986387
 42
0.036334
  0
VERTEX
  8
0
 10
555.991999
 20
219.785836
 42
0.031844
  0
VERTEX
  8
0
 10
550.917691
 20
215.535979
 42
0.016281
  0
VERTEX
  8
0
 10
545.088522
 20
209.612381
 42
0.023757
  0
VERTEX
  8
0
 10
536.006534
 20
198.770562
 42
0.038628
  0
VERTEX
  8
0
 10
529.502469
 20
188.680597
 42
0.040715
  0
VERTEX
  8
0
 10
524.857487
 20
178.108455
 42
0.030384
  0
VERTEX
  8
0
 10
521.436759
 20
165.836190
 42
0.066642
  0
VERTEX
  8
0
 10
520.584215
 20
154.928387
 42
0.068396
  0
VERTEX
  8
0
 10
522.650184
 20
144.281708
 42
0.076167
  0
VERTEX
  8
0
 10
527.160275
 20
135.624677
 42
0.130108
  0
VERTEX
  8
0
 10
533.459584
 20
130.533708
 42
0.036005
  0
VERTEX
  8
0
 10
540.224107
 20
128.072383
 42
0.070640
  0
VERTEX
  8
0
 10
545.888835
 20
127.297532
 42
0.074216
  0
VERTEX
  8
0
 10
551.359681
 20
128.142643
 42
0.043601
  0
VERTEX
  8
0
 10
557.500000
 20
130.656402
 42
0.025815
  0
VERTEX
  8
0
 10
561.371925
 20
132.911199
 42
0.012928
  0
VERTEX
  8
0
 10
566.032908
 20
136.132969
 42
0.010690
  0
VERTEX
  8
0
 10
570.313069
 20
139.400589
 42
0.071825
  0
VERTEX
  8
0
 10
572.138197
 20
141.344207
 42
-0.100676
  0
VERTEX
  8
0
 10
572.456296
 20
141.646276
 42
-0.092933
  0
VERTEX
  8
0
 10
572.876121
 20
141.810826
 42
-0.091609
  0
VERTEX
  8
0
 10
573.332320
 20
141.813337
 42
-0.094371
  0
VERTEX
  8
0
 10
573.754087
 20
141.651982
 42
-0.247069
  0
VERTEX
  8
0
 10
574.294415
 20
140.735651
 42
-0.036777
  0
VERTEX
  8
0
 10
574.238675
 20
138.521784
 42
-0.040202
  0
VERTEX
  8
0
 10
573.813490
 20
136.172600
 42
-0.085617
  0
VERTEX
  8
0
 10
573.045932
 20
134.500000
 42
0.056641
  0
VERTEX
  8
0
 10
572.708566
 20
133.864275
 42
0.007967
  0
VERTEX
  8
0
 10
572.186379
 20
132.471875
 42
0.009008
  0
VERTEX
  8
0
 10
571.622066
 20
130.796233
 42
0.007550
  0
VERTEX
  8
0
 10
571.082662
 20
129.000000
 42
-0.007491
  0
VERTEX
  8
0
 10
570.527298
 20
127.149826
 42
-0.007427
  0
VERTEX
  8
0
 10
569.915244
 20
125.311798
 42
-0.007319
  0
VERTEX
  8
0
 10
569.332630
 20
123.720354
 42
-0.028447
  0
VERTEX
  8
0
 10
568.902536
 20
122.763569
 42
0.038242
  0
VERTEX
  8
0
 10
568.556542
 20
121.951760
 42
0.022773
  0
VERTEX
  8
0
 10
568.265120
 20
120.941743
 42
0.022716
  0
VERTEX
  8
0
 10
568.065331
 20
119.902569
 42
0.036145
  0
VERTEX
  8
0
 10
568.000000
 20
119.000000
 42
-0.035134
  0
VERTEX
  8
0
 10
567.936500
 20
118.097431
 42
-0.022134
  0
VERTEX
  8
0
 10
567.742309
 20
117.058257
 42
-0.022198
  0
VERTEX
  8
0
 10
567.459072
 20
116.048170
 42
-0.037523
  0
VERTEX
  8
0
 10
567.122756
 20
115.236431
 42
0.031336
  0
VERTEX
  8
0
 10
566.047594
 20
112.729488
 42
0.016463
  0
VERTEX
  8
0
 10
565.014032
 20
109.498139
 42
0.015808
  0
VERTEX
  8
0
 10
564.225794
 20
106.345931
 42
0.053406
  0
VERTEX
  8
0
 10
564.000000
 20
104.238019
 42
-0.043101
  0
VERTEX
  8
0
 10
563.926003
 20
103.381209
 42
-0.044498
  0
VERTEX
  8
0
 10
563.706250
 20
102.559232
 42
-0.048633
  0
VERTEX
  8
0
 10
563.383877
 20
101.887355
 42
-0.118720
  0
VERTEX
  8
0
 10
563.000000
 20
101.500000
 42
0.128561
  0
VERTEX
  8
0
 10
562.615613
 20
101.096789
 42
0.046040
  0
VERTEX
  8
0
 10
562.293750
 20
100.363811
 42
0.041947
  0
VERTEX
  8
0
 10
562.073871
 20
99.457084
 42
0.038534
  0
VERTEX
  8
0
 10
562.000000
 20
98.500000
 42
-0.038534
  0
VERTEX
  8
0
 10
561.926129
 20
97.542916
 42
-0.041947
  0
VERTEX
  8
0
 10
561.706250
 20
96.636189
 42
-0.046040
  0
VERTEX
  8
0
 10
561.384387
 20
95.903211
 42
-0.128561
  0
VERTEX
  8
0
 10
561.000000
 20
95.500000
 42
0.111983
  0
VERTEX
  8
0
 10
560.616421
 20
95.123104
 42
0.050144
  0
VERTEX
  8
0
 10
560.293750
 20
94.489364
 42
0.046179
  0
VERTEX
  8
0
 10
560.074072
 20
93.720919
 42
0.046572
  0
VERTEX
  8
0
 10
560.000000
 20
92.927414
 42
-0.035630
  0
VERTEX
  8
0
 10
559.937596
 20
92.052802
 42
-0.021865
  0
VERTEX
  8
0
 10
559.746241
 20
91.036935
 42
-0.021877
  0
VERTEX
  8
0
 10
559.467278
 20
90.043112
 42
-0.036075
  0
VERTEX
  8
0
 10
559.136140
 20
89.236431
 42
0.003501
  0
VERTEX
  8
0
 10
558.647193
 20
88.236108
 42
0.000631
  0
VERTEX
  8
0
 10
557.753018
 20
86.367759
 42
0.000681
  0
VERTEX
  8
0
 10
556.711566
 20
84.176938
 42
0.000616
  0
VERTEX
  8
0
 10
555.640720
 20
81.909133
 42
-0.039239
  0
VERTEX
  8
0
 10
552.296165
 20
76.045495
 42
-0.124778
  0
VERTEX
  8
0
 10
548.946918
 20
73.073890
 42
-0.173236
  0
VERTEX
  8
0
 10
545.281539
 20
72.578343
 42
-0.094257
  0
VERTEX
  8
0
 10
541.039771
 20
74.354983
 42
-0.057861
  0
VERTEX
  8
0
 10
538.483409
 20
76.509041
 42
-0.033861
  0
VERTEX
  8
0
 10
535.939949
 20
79.607719
 42
-0.022274
  0
VERTEX
  8
0
 10
532.945157
 20
84.228264
 42
-0.006728
  0
VERTEX
  8
0
 10
528.809826
 20
91.500000
 42
0.124743
  0
VERTEX
  8
0
 10
526.543958
 20
93.923358
 42
0.081503
  0
VERTEX
  8
0
 10
523.013429
 20
95.449949
 42
0.078075
  0
VERTEX
  8
0
 10
519.020640
 20
95.808823
 42
0.096728
  0
VERTEX
  8
0
 10
515.419693
 20
94.854562
 42
0.042440
  0
VERTEX
  8
0
 10
513.817813
 20
93.901446
 42
0.124513
  0
VERTEX
  8
0
 10
512.995493
 20
92.928085
 42
0.096677
  0
VERTEX
  8
0
 10
512.622651
 20
91.532023
 42
0.019818
  0
VERTEX
  8
0
 10
512.549346
 20
88.968664
 42
0.030824
  0
VERTEX
  8
0
 10
512.692000
 20
87.009122
 42
0.021114
  0
VERTEX
  8
0
 10
513.083764
 20
84.812851
 42
0.021338
  0
VERTEX
  8
0
 10
513.643374
 20
82.721102
 42
0.039845
  0
VERTEX
  8
0
 10
514.299346
 20
81.096362
 42
-0.009808
  0
VERTEX
  8
0
 10
514.950544
 20
79.726512
 42
-0.012138
  0
VERTEX
  8
0
 10
515.500433
 20
78.425415
 42
-0.010539
  0
VERTEX
  8
0
 10
515.909769
 20
77.319548
 42
-0.083552
  0
VERTEX
  8
0
 10
516.000000
 20
76.783352
 42
0.116025
  0
VERTEX
  8
0
 10
516.628508
 20
74.111310
 42
0.010025
  0
VERTEX
  8
0
 10
519.897308
 20
67.864326
 42
0.014208
  0
VERTEX
  8
0
 10
523.558662
 20
61.623211
 42
0.034841
  0
VERTEX
  8
0
 10
526.685948
 20
57.321550
 42
0.061178
  0
VERTEX
  8
0
 10
533.714448
 20
50.769578
 42
0.079360
  0
VERTEX
  8
0
 10
541.557691
 20
46.788122
 42
0.090356
  0
VERTEX
  8
0
 10
549.409494
 20
45.752635
 42
0.111701
  0
VERTEX
  8
0
 10
556.500000
 20
47.727056
 42
0.084538
  0
VERTEX
  8
0
 10
560.120197
 20
50.552597
 42
0.015075
  0
VERTEX
  8
0
 10
565.730063
 20
57.089313
 42
0.011540
  0
VERTEX
  8
0
 10
571.033755
 20
63.979575
 42
0.159568
  0
VERTEX
  8
0
 10
572.000000
 20
66.930175
 42
-0.092354
  0
VERTEX
  8
0
 10
572.076083
 20
67.338573
 42
-0.096121
  0
VERTEX
  8
0
 10
572.293750
 20
67.685739
 42
-0.099350
  0
VERTEX
  8
0
 10
572.618457
 20
67.918075
 42
-0.106151
  0
VERTEX
  8
0
 10
573.000000
 20
68.000000
 42
0.134893
  0
VERTEX
  8
0
 10
573.381342
 20
68.104788
 42
0.100404
  0
VERTEX
  8
0
 10
573.706250
 20
68.399363
 42
0.086995
  0
VERTEX
  8
0
 10
573.924909
 20
68.839997
 42
0.071894
  0
VERTEX
  8
0
 10
574.000000
 20
69.359535
 42
-0.100169
  0
VERTEX
  8
0
 10
574.270575
 20
70.696578
 42
-0.005484
  0
VERTEX
  8
0
 10
575.988290
 20
74.645330
 42
-0.007909
  0
VERTEX
  8
0
 10
578.257439
 20
79.501832
 42
-0.004657
  0
VERTEX
  8
0
 10
581.114578
 20
85.236431
 42
0.029916
  0
VERTEX
  8
0
 10
581.453680
 20
86.012959
 42
0.021751
  0
VERTEX
  8
0
 10
581.739907
 20
86.911382
 42
0.022098
  0
VERTEX
  8
0
 10
581.937225
 20
87.790715
 42
0.044166
  0
VERTEX
  8
0
 10
582.000000
 20
88.500000
 42
-0.043761
  0
VERTEX
  8
0
 10
582.062198
 20
89.209288
 42
-0.021918
  0
VERTEX
  8
0
 10
582.257691
 20
90.088618
 42
-0.021578
  0
VERTEX
  8
0
 10
582.541271
 20
90.987049
 42
-0.029735
  0
VERTEX
  8
0
 10
582.877244
 20
91.763569
 42
0.031336
  0
VERTEX
  8
0
 10
583.952406
 20
94.270512
 42
0.016463
  0
VERTEX
  8
0
 10
584.985968
 20
97.501861
 42
0.015808
  0
VERTEX
  8
0
 10
585.774206
 20
100.654069
 42
0.053406
  0
VERTEX
  8
0
 10
586.000000
 20
102.761981
 42
-0.043101
  0
VERTEX
  8
0
 10
586.073997
 20
103.618791
 42
-0.044498
  0
VERTEX
  8
0
 10
586.293750
 20
104.440768
 42
-0.048633
  0
VERTEX
  8
0
 10
586.616123
 20
105.112645
 42
-0.118720
  0
VERTEX
  8
0
 10
587.000000
 20
105.500000
 42
0.160038
  0
VERTEX
  8
0
 10
587.386723
 20
105.959285
 42
0.035433
  0
VERTEX
  8
0
 10
587.706250
 20
106.951261
 42
0.033399
  0
VERTEX
  8
0
 10
587.926590
 20
108.204732
 42
0.026815
  0
VERTEX
  8
0
 10
588.000000
 20
109.572586
 42
-0.022215
  0
VERTEX
  8
0
 10
588.064454
 20
111.022563
 42
-0.019644
  0
VERTEX
  8
0
 10
588.257691
 20
112.522440
 42
-0.020101
  0
VERTEX
  8
0
 10
588.539484
 20
113.860212
 42
-0.055054
  0
VERTEX
  8
0
 10
588.877244
 20
114.763569
 42
0.030928
  0
VERTEX
  8
0
 10
589.897639
 20
117.137461
 42
0.014223
  0
VERTEX
  8
0
 10
590.943109
 20
120.338482
 42
0.012986
  0
VERTEX
  8
0
 10
591.778985
 20
123.464651
 42
0.058893
  0
VERTEX
  8
0
 10
592.000000
 20
125.334567
 42
-0.041421
  0
VERTEX
  8
0
 10
592.064184
 20
126.108018
 42
-0.022591
  0
VERTEX
  8
0
 10
592.263577
 20
127.040022
 42
-0.022367
  0
VERTEX
  8
0
 10
592.553545
 20
127.975217
 42
-0.032902
  0
VERTEX
  8
0
 10
592.897282
 20
128.763569
 42
0.033389
  0
VERTEX
  8
0
 10
593.366781
 20
129.843211
 42
0.004444
  0
VERTEX
  8
0
 10
594.183640
 20
132.193048
 42
0.005129
  0
VERTEX
  8
0
 10
595.099933
 20
135.001142
 42
0.004288
  0
VERTEX
  8
0
 10
596.016358
 20
138.000000
 42
-0.001696
  0
VERTEX
  8
0
 10
596.921587
 20
141.018106
 42
-0.001967
  0
VERTEX
  8
0
 10
597.804214
 20
143.884375
 42
-0.001751
  0
VERTEX
  8
0
 10
598.569451
 20
146.305274
 42
-0.011682
  0
VERTEX
  8
0
 10
598.982713
 20
147.500000
 42
0.020752
  0
VERTEX
  8
0
 10
599.729806
 20
149.793643
 42
0.002203
  0
VERTEX
  8
0
 10
601.222941
 20
155.210190
 42
0.002970
  0
VERTEX
  8
0
 10
602.703113
 20
160.804996
 42
0.006997
  0
VERTEX
  8
0
 10
603.723938
 20
165.000000
 42
-0.046841
  0
VERTEX
  8
0
 10
604.132530
 20
166.239923
 42
-0.015251
  0
VERTEX
  8
0
 10
604.958817
 20
167.984019
 42
-0.015050
  0
VERTEX
  8
0
 10
606.000050
 20
169.876307
 42
-0.016405
  0
VERTEX
  8
0
 10
607.125355
 20
171.647724
 42
0.022540
  0
VERTEX
  8
0
 10
612.941254
 20
181.055940
 42
0.074301
  0
VERTEX
  8
0
 10
615.505660
 20
187.863245
 42
0.102893
  0
VERTEX
  8
0
 10
615.546778
 20
193.841129
 42
0.070289
  0
VERTEX
  8
0
 10
613.283809
 20
200.268406
 42
0.059001
  0
VERTEX
  8
0
 10
609.570867
 20
205.733664
 42
0.013322
  0
VERTEX
  8
0
 10
601.975503
 20
214.031027
 42
0.011865
  0
VERTEX
  8
0
 10
594.003357
 20
221.904464
 42
0.084471
  0
VERTEX
  8
0
 10
589.500000
 20
224.899529
 42
-0.002660
  0
VERTEX
  8
0
 10
588.224157
 20
225.474924
 42
-0.002202
  0
VERTEX
  8
0
 10
586.871173
 20
226.101013
 42
-0.002223
  0
VERTEX
  8
0
 10
585.635597
 20
226.686101
 42
-0.005972
  0
VERTEX
  8
0
 10
584.763569
 20
227.116671
 42
0.108133
  0
VERTEX
  8
0
 10
581.765078
 20
227.898804
 42
0.030416
  0
VERTEX
  8
0
 10
576.901971
 20
227.796250
 42
0.030779
  0
VERTEX
  8
0
 10
571.597741
 20
227.030175
 42
0.040896
  0
SEQEND
  0
POLYLINE
  8
0
 66
1
 70
1
  0
VERTEX
  8
0
 10
581.777494
 20
202.443296
 42
-0.080514
  0
VERTEX
  8
0
 10
582.964256
 20
201.288622
 42
-0.099096
  0
VERTEX
  8
0
 10
583.622259
 20
199.894094
 42
-0.052198
  0
VERTEX
  8
0
 10
583.926576
 20
197.719246
 42
-0.008681
  0
VERTEX
  8
0
 10
584.000000
 20
193.490349
 42
-0.016343
  0
VERTEX
  8
0
 10
583.839711
 20
188.587786
 42
-0.044508
  0
VERTEX
  8
0
 10
583.306438
 20
185.159726
 42
-0.038221
  0
VERTEX
  8
0
 10
582.127584
 20
181.598670
 42
-0.009600
  0
VERTEX
  8
0
 10
579.658935
 20
176.000000
 42
-0.024949
  0
VERTEX
  8
0
 10
577.215056
 20
171.355498
 42
-0.012164
  0
VERTEX
  8
0
 10
573.664520
 20
165.674543
 42
-0.011692
  0
VERTEX
  8
0
 10
569.975690
 20
160.354844
 42
-0.038872
  0
VERTEX
  8
0
 10
567.212377
 20
157.122905
 42
-0.087464
  0
VERTEX
  8
0
 10
563.034397
 20
154.195258
 42
-0.042931
  0
VERTEX
  8
0
 10
556.915469
 20
151.955254
 42
-0.041457
  0
VERTEX
  8
0
 10
550.900550
 20
150.846737
 42
-0.182855
  0
VERTEX
  8
0
 10
547.479646
 20
151.765313
 42
-0.071621
  0
VERTEX
  8
0
 10
547.012924
 20
152.215206
 42
-0.020864
  0
VERTEX
  8
0
 10
546.432246
 20
153.030245
 42
-0.020507
  0
VERTEX
  8
0
 10
545.847721
 20
154.013601
 42
-0.020620
  0
VERTEX
  8
0
 10
545.346868
 20
155.039777
 42
-0.115995
  0
VERTEX
  8
0
 10
544.788888
 20
158.073846
 42
-0.025273
  0
VERTEX
  8
0
 10
545.321426
 20
163.401801
 42
-0.027025
  0
VERTEX
  8
0
 10
546.509837
 20
169.140736
 42
-0.039691
  0
VERTEX
  8
0
 10
548.215460
 20
174.000000
 42
0.003855
  0
VERTEX
  8
0
 10
548.899009
 20
175.576156
 42
0.002430
  0
VERTEX
  8
0
 10
549.674012
 20
177.426563
 42
0.002439
  0
VERTEX
  8
0
 10
550.418425
 20
179.253660
 42
0.004478
  0
VERTEX
  8
0
 10
551.004075
 20
180.750000
 42
-0.022080
  0
VERTEX
  8
0
 10
551.542543
 20
181.994831
 42
-0.031257
  0
VERTEX
  8
0
 10
552.136924
 20
183.045312
 42
-0.032003
  0
VERTEX
  8
0
 10
552.706826
 20
183.808541
 42
-0.219797
  0
VERTEX
  8
0
 10
553.121320
 20
184.000000
 42
0.154026
  0
VERTEX
  8
0
 10
553.456432
 20
184.105740
 42
0.097916
  0
VERTEX
  8
0
 10
553.741888
 20
184.403510
 42
0.080418
  0
VERTEX
  8
0
 10
553.934508
 20
184.848410
 42
0.062104
  0
VERTEX
  8
0
 10
554.000000
 20
185.373653
 42
-0.185124
  0
VERTEX
  8
0
 10
554.933745
 20
187.809174
 42
-0.011484
  0
VERTEX
  8
0
 10
560.329161
 20
193.541020
 42
-0.017108
  0
VERTEX
  8
0
 10
566.031044
 20
198.943513
 42
-0.062977
  0
VERTEX
  8
0
 10
570.126670
 20
201.736128
 42
-0.034205
  0
VERTEX
  8
0
 10
573.723256
 20
203.274885
 42
-0.068926
  0
VERTEX
  8
0
 10
576.741363
 20
203.881208
 42
-0.085246
  0
VERTEX
  8
0
 10
579.369799
 20
203.592349
 42
-0.083059
  0
SEQEND
  0
POLYLINE
  8
0
 66
1
 70
1
  0
VERTEX
  8
0
 10
475.000000
 20
223.000000
 42
-0.053036
  0
VERTEX
  8
0
 10
474.261466
 20
222.626927
 42
-0.026903
  0
VERTEX
  8
0
 10
473.267985
 20
222.310881
 42
-0.026383
  0
VERTEX
  8
0
 10
472.196749
 20
222.092116
 42
-0.035517
  0
VERTEX
  8
0
 10
471.210162
 20
222.015313
 42
0.100103
  0
VERTEX
  8
0
 10
467.768741
 20
221.295357
 42
0.028699
  0
VERTEX
  8
0
 10
462.871236
 20
218.849632
 42
0.022181
  0
VERTEX
  8
0
 10
456.585636
 20
214.865929
 42
0.009409
  0
VERTEX
  8
0
 10
448.510833
 20
209.002404
 42
0.048983
  0
VERTEX
  8
0
 10
442.466381
 20
203.430206
 42
0.015821
  0
VERTEX
  8
0
 10
434.645729
 20
194.079002
 42
0.015974
  0
VERTEX
  8
0
 10
427.397671
 20
184.198762
 42
0.045325
  0
VERTEX
  8
0
 10
423.227396
 20
176.750000
 42
0.003747
  0
VERTEX
  8
0
 10
422.078082
 20
174.122207
 42
0.003214
  0
VERTEX
  8
0
 10
420.907062
 20
171.339907
 42
0.003313
  0
VERTEX
  8
0
 10
419.834035
 20
168.694359
 42
0.005893
  0
VERTEX
  8
0
 10
418.990716
 20
166.500000
 42
-0.002760
  0
VERTEX
  8
0
 10
418.627489
 20
165.536882
 42
-0.001213
  0
VERTEX
  8
0
 10
418.136571
 20
164.265866
 42
-0.001201
  0
VERTEX
  8
0
 10
417.609307
 20
162.920113
 42
-0.001610
  0
VERTEX
  8
0
 10
417.124512
 20
161.702947
 42
0.036248
  0
VERTEX
  8
0
 10
416.692743
 20
160.354093
 42
0.017707
  0
VERTEX
  8
0
 10
416.330325
 20
158.583686
 42
0.017464
  0
VERTEX
  8
0
 10
416.082002
 20
156.707387
 42
0.024169
  0
VERTEX
  8
0
 10
416.000000
 20
155.011964
 42
-0.023832
  0
VERTEX
  8
0
 10
415.926736
 20
153.475766
 42
-0.030709
  0
VERTEX
  8
0
 10
415.706250
 20
152.080328
 42
-0.031671
  0
VERTEX
  8
0
 10
415.387702
 20
150.978472
 42
-0.169720
  0
VERTEX
  8
0
 10
415.000000
 20
150.500000
 42
0.215620
  0
VERTEX
  8
0
 10
414.605009
 20
149.913229
 42
0.012760
  0
VERTEX
  8
0
 10
414.293750
 20
147.739555
 42
0.017383
  0
VERTEX
  8
0
 10
414.072588
 20
145.046760
 42
0.011797
  0
VERTEX
  8
0
 10
414.000000
 20
141.970618
 42
0.042039
  0
VERTEX
  8
0
 10
414.626342
 20
134.534186
 42
0.062481
  0
VERTEX
  8
0
 10
416.510485
 20
128.285460
 42
0.057658
  0
VERTEX
  8
0
 10
420.012499
 20
122.347232
 42
0.030124
  0
VERTEX
  8
0
 10
425.606262
 20
115.816327
 42
0.073815
  0
VERTEX
  8
0
 10
430.162230
 20
112.317176
 42
0.087350
  0
VERTEX
  8
0
 10
435.287801
 20
110.542471
 42
0.065016
  0
VERTEX
  8
0
 10
441.862102
 20
110.350316
 42
0.023680
  0
VERTEX
  8
0
 10
451.097125
 20
111.726974
 42
0.051623
  0
VERTEX
  8
0
 10
455.689195
 20
113.139850
 42
0.024264
  0
VERTEX
  8
0
 10
461.287664
 20
115.845314
 42
0.023092
  0
VERTEX
  8
0
 10
467.121603
 20
119.380938
 42
0.024329
  0
VERTEX
  8
0
 10
472.500000
 20
123.382671
 42
0.048772
  0
VERTEX
  8
0
 10
487.236179
 20
138.130406
 42
0.051731
  0
VERTEX
  8
0
 10
498.508698
 20
155.180458
 42
0.054300
  0
VERTEX
  8
0
 10
505.603943
 20
173.349289
 42
0.066468
  0
VERTEX
  8
0
 10
507.984819
 20
191.409963
 42
0.034459
  0
VERTEX
  8
0
 10
507.268449
 20
201.545521
 42
0.080649
  0
VERTEX
  8
0
 10
505.026624
 20
208.782384
 42
0.087681
  0
VERTEX
  8
0
 10
500.750864
 20
214.570131
 42
0.046489
  0
VERTEX
  8
0
 10
493.721001
 20
220.101929
 42
0.014886
  0
VERTEX
  8
0
 10
490.237681
 20
222.209021
 42
0.048019
  0
VERTEX
  8
0
 10
487.767130
 20
223.307231
 42
0.055753
  0
VERTEX
  8
0
 10
485.336540
 20
223.827664
 42
0.025575
  0
VERTEX
  8
0
 10
482.094964
 20
223.984687
 42
0.015726
  0
VERTEX
  8
0
 10
479.842959
 20
223.907670
 42
0.018070
  0
VERTEX
  8
0
 10
477.702896
 20
223.689119
 42
0.017423
  0
VERTEX
  8
0
 10
475.916398
 20
223.377399
 42
0.091793
  0
SEQEND
  0
POLYLINE
  8
0
 66
1
 70
1
  0
VERTEX
  8
0
 10
482.384990
 20
193.535183
 42
-0.064187
  0
VERTEX
  8
0
 10
483.054094
 20
192.156523
 42
-0.030834
  0
VERTEX
  8
0
 10
483.564152
 20
190.254456
 42
-0.027729
  0
VERTEX
  8
0
 10
483.891183
 20
188.013383
 42
-0.022369
  0
VERTEX
  8
0
 10
484.000000
 20
185.582236
 42
-0.021466
  0
VERTEX
  8
0
 10
483.843703
 20
181.943297
 42
-0.044569
  0
VERTEX
  8
0
 10
483.349517
 20
179.147107
 42
-0.031200
  0
VERTEX
  8
0
 10
482.256158
 20
175.917053
 42
-0.006096
  0
VERTEX
  8
0
 10
479.858361
 20
170.260898
 42
0.008170
  0
VERTEX
  8
0
 10
479.146736
 20
168.562680
 42
0.010269
  0
VERTEX
  8
0
 10
478.545894
 20
166.966096
 42
0.008599
  0
VERTEX
  8
0
 10
478.095005
 20
165.615466
 42
0.076400
  0
VERTEX
  8
0
 10
478.000000
 20
164.997330
 42
-0.058195
  0
VERTEX
  8
0
 10
477.940274
 20
164.485915
 42
-0.019762
  0
VERTEX
  8
0
 10
477.738817
 20
163.763723
 42
-0.019346
  0
VERTEX
  8
0
 10
477.451211
 20
162.976417
 42
-0.021080
  0
VERTEX
  8
0
 10
477.110867
 20
162.236431
 42
0.002864
  0
VERTEX
  8
0
 10
476.647232
 20
161.318048
 42
0.000811
  0
VERTEX
  8
0
 10
475.936287
 20
159.883672
 42
0.000818
  0
VERTEX
  8
0
 10
475.138523
 20
158.260868
 42
0.000865
  0
VERTEX
  8
0
 10
474.360867
 20
156.665431
 42
-0.052760
  0
VERTEX
  8
0
 10
471.511864
 20
152.093103
 42
-0.022946
  0
VERTEX
  8
0
 10
466.847852
 20
146.650755
 42
-0.022926
  0
VERTEX
  8
0
 10
461.714062
 20
141.667380
 42
-0.053809
  0
VERTEX
  8
0
 10
457.360824
 20
138.578104
 42
-0.042105
  0
VERTEX
  8
0
 10
452.825582
 20
136.522811
 42
-0.098199
  0
VERTEX
  8
0
 10
449.152875
 20
135.984382
 42
-0.132369
  0
VERTEX
  8
0
 10
446.245883
 20
136.926526
 42
-0.112127
  0
VERTEX
  8
0
 10
443.989040
 20
139.250000
 42
-0.080186
  0
VERTEX
  8
0
 10
442.698716
 20
142.411513
 42
-0.038259
  0
VERTEX
  8
0
 10
442.036445
 20
146.764388
 42
-0.034307
  0
VERTEX
  8
0
 10
442.012249
 20
150.851976
 42
-0.243274
  0
VERTEX
  8
0
 10
443.000000
 20
152.500000
 42
0.111983
  0
VERTEX
  8
0
 10
443.383579
 20
152.876896
 42
0.050144
  0
VERTEX
  8
0
 10
443.706250
 20
153.510636
 42
0.046179
  0
VERTEX
  8
0
 10
443.925928
 20
154.279081
 42
0.046572
  0
VERTEX
  8
0
 10
444.000000
 20
155.072586
 42
-0.035630
  0
VERTEX
  8
0
 10
444.062404
 20
155.947198
 42
-0.021865
  0
VERTEX
  8
0
 10
444.253759
 20
156.963065
 42
-0.021877
  0
VERTEX
  8
0
 10
444.532722
 20
157.956888
 42
-0.036075
  0
VERTEX
  8
0
 10
444.863860
 20
158.763569
 42
0.003375
  0
VERTEX
  8
0
 10
445.357575
 20
159.773003
 42
0.000577
  0
VERTEX
  8
0
 10
446.280797
 20
161.699023
 42
0.000630
  0
VERTEX
  8
0
 10
447.359475
 20
163.963360
 42
0.000562
  0
VERTEX
  8
0
 10
448.474396
 20
166.318213
 42
-0.035909
  0
VERTEX
  8
0
 10
452.517553
 20
173.498255
 42
-0.025268
  0
VERTEX
  8
0
 10
458.019086
 20
180.962429
 42
-0.025320
  0
VERTEX
  8
0
 10
464.225106
 20
187.809573
 42
-0.036887
  0
VERTEX
  8
0
 10
470.400038
 20
193.118234
 42
-0.054978
  0
VERTEX
  8
0
 10
474.036236
 20
195.231770
 42
-0.095765
  0
VERTEX
  8
0
 10
477.424389
 20
196.009815
 42
-0.123220
  0
VERTEX
  8
0
 10
480.270214
 20
195.401973
 42
-0.134585
  0
SEQEND
  0
POLYLINE
  8
0
 66
1
 70
1
  0
VERTEX
  8
0
 10
814.500000
 20
223.000000
 42
-0.127822
  0
VERTEX
  8
0
 10
814.098005
 20
222.615654
 42
-0.046250
  0
VERTEX
  8
0
 10
813.369868
 20
222.293750
 42
-0.042142
  0
VERTEX
  8
0
 10
812.469811
 20
222.073881
 42
-0.038859
  0
VERTEX
  8
0
 10
811.520620
 20
222.000000
 42
0.078005
  0
VERTEX
  8
0
 10
810.182162
 20
221.789909
 42
0.012779
  0
VERTEX
  8
0
 10
807.699838
 20
220.920337
 42
0.013797
  0
VERTEX
  8
0
 10
804.808988
 20
219.731714
 42
0.011780
  0
VERTEX
  8
0
 10
801.829637
 20
218.324551
 42
0.025361
  0
VERTEX
  8
0
 10
797.740710
 20
216.007659
 42
0.025478
  0
VERTEX
  8
0
 10
793.913923
 20
213.291970
 42
0.020358
  0
VERTEX
  8
0
 10
789.719564
 20
209.695323
 42
0.008735
  0
VERTEX
  8
0
 10
784.406912
 20
204.574551
 42
0.018279
  0
VERTEX
  8
0
 10
778.011902
 20
197.706718
 42
0.011938
  0
VERTEX
  8
0
 10
771.125413
 20
189.351523
 42
0.006131
  0
VERTEX
  8
0
 10
764.859041
 20
181.162983
 42
0.161619
  0
VERTEX
  8
0
 10
764.000000
 20
178.574796
 42
-0.096676
  0
VERTEX
  8
0
 10
763.929657
 20
178.214388
 42
-0.002383
  0
VERTEX
  8
0
 10
763.286044
 20
176.649839
 42
-0.005070
  0
VERTEX
  8
0
 10
762.500852
 20
174.819175
 42
-0.003420
  0
VERTEX
  8
0
 10
761.569511
 20
172.745680
 42
0.011279
  0
VERTEX
  8
0
 10
759.085257
 20
166.973821
 42
0.020892
  0
VERTEX
  8
0
 10
757.373868
 20
162.168045
 42
0.025754
  0
VERTEX
  8
0
 10
756.351306
 20
158.143805
 42
0.048387
  0
VERTEX
  8
0
 10
756.014553
 20
154.809017
 42
-0.025058
  0
VERTEX
  8
0
 10
755.935651
 20
153.350582
 42
-0.031782
  0
VERTEX
  8
0
 10
755.710525
 20
152.020713
 42
-0.033198
  0
VERTEX
  8
0
 10
755.388174
 20
150.969746
 42
-0.164778
  0
VERTEX
  8
0
 10
755.000000
 20
150.500000
 42
0.216558
  0
VERTEX
  8
0
 10
754.604794
 20
149.910631
 42
0.012383
  0
VERTEX
  8
0
 10
754.293750
 20
147.693751
 42
0.017090
  0
VERTEX
  8
0
 10
754.072574
 20
144.950612
 42
0.011570
  0
VERTEX
  8
0
 10
754.000000
 20
141.814688
 42
0.013039
  0
VERTEX
  8
0
 10
754.120862
 20
137.180939
 42
0.040485
  0
VERTEX
  8
0
 10
754.535346
 20
134.084774
 42
0.044609
  0
VERTEX
  8
0
 10
755.418969
 20
131.259939
 42
0.018561
  0
VERTEX
  8
0
 10
757.084156
 20
127.623705
 42
0.045370
  0
VERTEX
  8
0
 10
761.639710
 20
120.312659
 42
0.061177
  0
VERTEX
  8
0
 10
767.061442
 20
114.722636
 42
0.070488
  0
VERTEX
  8
0
 10
772.962487
 20
111.203516
 42
0.099575
  0
VERTEX
  8
0
 10
778.945811
 20
110.000000
 42
0.065562
  0
VERTEX
  8
0
 10
788.497886
 20
111.257917
 42
0.046028
  0
VERTEX
  8
0
 10
798.684467
 20
115.020983
 42
0.041709
  0
VERTEX
  8
0
 10
809.022697
 20
121.067551
 42
0.033682
  0
VERTEX
  8
0
 10
819.028280
 20
129.157529
 42
0.026074
  0
VERTEX
  8
0
 10
822.093224
 20
132.309562
 42
0.007240
  0
VERTEX
  8
0
 10
826.561584
 20
137.563468
 42
0.006543
  0
VERTEX
  8
0
 10
830.842049
 20
142.887064
 42
0.037844
  0
VERTEX
  8
0
 10
832.844035
 20
145.887005
 42
-0.000284
  0
VERTEX
  8
0
 10
833.493108
 20
147.038231
 42
-0.000125
  0
VERTEX
  8
0
 10
834.353137
 20
148.560708
 42
-0.000124
  0
VERTEX
  8
0
 10
835.266009
 20
150.174857
 42
-0.000166
  0
VERTEX
  8
0
 10
836.094035
 20
151.637005
 42
0.000015
  0
VERTEX
  8
0
 10
836.968131
 20
153.179418
 42
0.000008
  0
VERTEX
  8
0
 10
838.027623
 20
155.049180
 42
0.000008
  0
VERTEX
  8
0
 10
839.096041
 20
156.934843
 42
0.000014
  0
VERTEX
  8
0
 10
840.000000
 20
158.530416
 42
0.010943
  0
VERTEX
  8
0
 10
840.765820
 20
159.954016
 42
0.013583
  0
VERTEX
  8
0
 10
841.412500
 20
161.311790
 42
0.011909
  0
VERTEX
  8
0
 10
841.893035
 20
162.469249
 42
0.092687
  0
VERTEX
  8
0
 10
842.000000
 20
163.041315
 42
-0.078519
  0
VERTEX
  8
0
 10
842.094293
 20
163.638059
 42
-0.008253
  0
VERTEX
  8
0
 10
842.553512
 20
164.979016
 42
-0.010055
  0
VERTEX
  8
0
 10
843.162714
 20
166.565871
 42
-0.007903
  0
VERTEX
  8
0
 10
843.884298
 20
168.260898
 42
0.043571
  0
VERTEX
  8
0
 10
845.727971
 20
173.622738
 42
0.024938
  0
VERTEX
  8
0
 10
847.049764
 20
180.342139
 42
0.024056
  0
VERTEX
  8
0
 10
847.747388
 20
187.566676
 42
0.027585
  0
VERTEX
  8
0
 10
847.698901
 20
194.500000
 42
0.009145
  0
VERTEX
  8
0
 10
847.220260
 20
200.437579
 42
0.019147
  0
VERTEX
  8
0
 10
846.587378
 20
205.027664
 42
0.015819
  0
VERTEX
  8
0
 10
845.876468
 20
208.413802
 42
0.345941
  0
VERTEX
  8
0
 10
845.130612
 20
209.000000
 42
-0.223071
  0
VERTEX
  8
0
 10
844.813798
 20
209.148746
 42
-0.024537
  0
VERTEX
  8
0
 10
844.319169
 20
209.807813
 42
-0.026223
  0
VERTEX
  8
0
 10
843.783632
 20
210.696538
 42
-0.018246
  0
VERTEX
  8
0
 10
843.270330
 20
211.750000
 42
0.105625
  0
VERTEX
  8
0
 10
841.573205
 20
214.090517
 42
0.022107
  0
VERTEX
  8
0
 10
837.641175
 20
217.327451
 42
0.023923
  0
VERTEX
  8
0
 10
833.021162
 20
220.465818
 42
0.034371
  0
VERTEX
  8
0
 10
828.635190
 20
222.750000
 42
0.072656
  0
VERTEX
  8
0
 10
825.400643
 20
223.632559
 42
0.025913
  0
VERTEX
  8
0
 10
820.613233
 20
223.965813
 42
0.019208
  0
VERTEX
  8
0
 10
815.956182
 20
223.869278
 42
0.244210
  0
SEQEND
  0
POLYLINE
  8
0
 66
1
 70
1
  0
VERTEX
  8
0
 10
822.107905
 20
192.798378
 42
-0.123567
  0
VERTEX
  8
0
 10
822.932278
 20
189.508307
 42
-0.023675
  0
VERTEX
  8
0
 10
822.636297
 20
183.310477
 42
-0.026190
  0
VERTEX
  8
0
 10
821.651383
 20
176.678346
 42
-0.043282
  0
VERTEX
  8
0
 10
820.053307
 20
171.250000
 42
0.000575
  0
VERTEX
  8
0
 10
819.126261
 20
168.871623
 42
0.000346
  0
VERTEX
  8
0
 10
818.032209
 20
166.049425
 42
0.000347
  0
VERTEX
  8
0
 10
816.948792
 20
163.243121
 42
0.000608
  0
VERTEX
  8
0
 10
816.056340
 20
160.918256
 42
-0.067807
  0
VERTEX
  8
0
 10
811.335006
 20
152.290632
 42
-0.047734
  0
VERTEX
  8
0
 10
803.936267
 20
144.048360
 42
-0.049155
  0
VERTEX
  8
0
 10
795.792579
 20
137.913210
 42
-0.137716
  0
VERTEX
  8
0
 10
788.978079
 20
136.000000
 42
-0.128949
  0
VERTEX
  8
0
 10
786.193961
 20
136.730157
 42
-0.111442
  0
VERTEX
  8
0
 10
783.946668
 20
138.761345
 42
-0.092304
  0
VERTEX
  8
0
 10
782.495397
 20
141.927343
 42
-0.062154
  0
VERTEX
  8
0
 10
782.011869
 20
145.884859
 42
-0.066144
  0
VERTEX
  8
0
 10
783.247426
 20
155.004198
 42
-0.047782
  0
VERTEX
  8
0
 10
786.887864
 20
164.610114
 42
-0.042564
  0
VERTEX
  8
0
 10
792.807664
 20
174.422934
 42
-0.031804
  0
VERTEX
  8
0
 10
800.867176
 20
184.158584
 42
-0.021931
  0
VERTEX
  8
0
 10
808.814352
 20
191.893621
 42
-0.085633
  0
VERTEX
  8
0
 10
814.611083
 20
195.505043
 42
-0.185269
  0
VERTEX
  8
0
 10
818.879055
 20
195.590129
 42
-0.185316
  0
SEQEND
  0
POLYLINE
  8
0
 66
1
 70
1
  0
VERTEX
  8
0
 10
880.364681
 20
216.047393
 42
0.057757
  0
VERTEX
  8
0
 10
877.180140
 20
214.886582
 42
0.042819
  0
VERTEX
  8
0
 10
873.984652
 20
212.925133
 42
0.044133
  0
VERTEX
  8
0
 10
871.354822
 20
210.598451
 42
0.099060
  0
VERTEX
  8
0
 10
869.943451
 20
208.351266
 42
0.073291
  0
VERTEX
  8
0
 10
869.630734
 20
206.932869
 42
0.067861
  0
VERTEX
  8
0
 10
869.727325
 20
205.445135
 42
0.048620
  0
VERTEX
  8
0
 10
870.277871
 20
203.649547
 42
0.017528
  0
VERTEX
  8
0
 10
871.391854
 20
201.218805
 42
-0.005113
  0
VERTEX
  8
0
 10
872.942208
 20
198.046287
 42
-0.007656
  0
VERTEX
  8
0
 10
874.225041
 20
195.241860
 42
-0.007341
  0
VERTEX
  8
0
 10
875.459511
 20
192.314092
 42
-0.004212
  0
VERTEX
  8
0
 10
876.866204
 20
188.750000
 42
0.003121
  0
VERTEX
  8
0
 10
877.274517
 20
187.708824
 42
0.001667
  0
VERTEX
  8
0
 10
877.791596
 20
186.426562
 42
0.001659
  0
VERTEX
  8
0
 10
878.328284
 20
185.120785
 42
0.002588
  0
VERTEX
  8
0
 10
878.800103
 20
184.000000
 42
-0.013267
  0
VERTEX
  8
0
 10
879.289968
 20
182.763126
 42
-0.005428
  0
VERTEX
  8
0
 10
879.892088
 20
181.059375
 42
-0.005366
  0
VERTEX
  8
0
 10
880.499600
 20
179.214537
 42
-0.006838
  0
VERTEX
  8
0
 10
881.018180
 20
177.500000
 42
0.000522
  0
VERTEX
  8
0
 10
881.515831
 20
175.776393
 42
0.000407
  0
VERTEX
  8
0
 10
882.060201
 20
173.904045
 42
0.000411
  0
VERTEX
  8
0
 10
882.570275
 20
172.160309
 42
0.001001
  0
VERTEX
  8
0
 10
882.950056
 20
170.875474
 42
-0.187639
  0
VERTEX
  8
0
 10
882.777461
 20
168.763944
 42
-0.054989
  0
VERTEX
  8
0
 10
881.010335
 20
165.960233
 42
-0.021300
  0
VERTEX
  8
0
 10
877.039069
 20
161.385009
 42
-0.002167
  0
VERTEX
  8
0
 10
867.115775
 20
150.981432
 42
0.003306
  0
VERTEX
  8
0
 10
860.691798
 20
144.215748
 42
0.004873
  0
VERTEX
  8
0
 10
855.149453
 20
138.184005
 42
0.002353
  0
VERTEX
  8
0
 10
850.521298
 20
132.998730
 42
0.089315
  0
VERTEX
  8
0
 10
849.712150
 20
131.666530
 42
0.094272
  0
VERTEX
  8
0
 10
849.317433
 20
129.493444
 42
0.047457
  0
VERTEX
  8
0
 10
849.605484
 20
126.710865
 42
0.047539
  0
VERTEX
  8
0
 10
850.408347
 20
124.049593
 42
0.099676
  0
VERTEX
  8
0
 10
851.599858
 20
122.257285
 42
-0.014268
  0
VERTEX
  8
0
 10
852.175516
 20
121.647799
 42
-0.010255
  0
VERTEX
  8
0
 10
852.784336
 20
120.936347
 42
-0.010370
  0
VERTEX
  8
0
 10
853.336192
 20
120.234850
 42
-0.021930
  0
VERTEX
  8
0
 10
853.727935
 20
119.664663
 42
0.076782
  0
VERTEX
  8
0
 10
855.354649
 20
117.777406
 42
0.037125
  0
VERTEX
  8
0
 10
857.934211
 20
115.888978
 42
0.036827
  0
VERTEX
  8
0
 10
860.686073
 20
114.441982
 42
0.102980
  0
VERTEX
  8
0
 10
862.809281
 20
114.000000
 42
0.157244
  0
VERTEX
  8
0
 10
864.696778
 20
114.608644
 42
0.021764
  0
VERTEX
  8
0
 10
867.974362
 20
117.191425
 42
0.015772
  0
VERTEX
  8
0
 10
872.711832
 20
121.538511
 42
0.003857
  0
VERTEX
  8
0
 10
880.228588
 20
129.000000
 42
-0.004042
  0
VERTEX
  8
0
 10
886.024919
 20
134.749462
 42
-0.006318
  0
VERTEX
  8
0
 10
891.115436
 20
139.593750
 42
-0.002222
  0
VERTEX
  8
0
 10
895.551544
 20
143.673201
 42
-0.186906
  0
VERTEX
  8
0
 10
896.395237
 20
144.000000
 42
-0.244078
  0
VERTEX
  8
0
 10
897.447153
 20
143.453971
 42
-0.009130
  0
VERTEX
  8
0
 10
900.021101
 20
139.650543
 42
-0.016980
  0
VERTEX
  8
0
 10
902.422308
 20
135.669418
 42
-0.039733
  0
VERTEX
  8
0
 10
903.868686
 20
132.510249
 42
0.112261
  0
VERTEX
  8
0
 10
904.774269
 20
131.108278
 42
0.001635
  0
VERTEX
  8
0
 10
911.912397
 20
124.180745
 42
0.004728
  0
VERTEX
  8
0
 10
918.714483
 20
117.745392
 42
0.018836
  0
VERTEX
  8
0
 10
923.066879
 20
114.000000
 42
0.030950
  0
VERTEX
  8
0
 10
927.059423
 20
111.203394
 42
0.022420
  0
VERTEX
  8
0
 10
931.814448
 20
108.578973
 42
0.021094
  0
VERTEX
  8
0
 10
936.331976
 20
106.576149
 42
0.092031
  0
VERTEX
  8
0
 10
939.190983
 20
106.021621
 42
-0.034046
  0
VERTEX
  8
0
 10
940.266378
 20
105.939625
 42
-0.038841
  0
VERTEX
  8
0
 10
941.273037
 20
105.712601
 42
-0.042441
  0
VERTEX
  8
0
 10
942.079367
 20
105.386528
 42
-0.137890
  0
VERTEX
  8
0
 10
942.500000
 20
105.000000
 42
0.124550
  0
VERTEX
  8
0
 10
942.896661
 20
104.615832
 42
0.047149
  0
VERTEX
  8
0
 10
943.603887
 20
104.293750
 42
0.042998
  0
VERTEX
  8
0
 10
944.475045
 20
104.073924
 42
0.040330
  0
VERTEX
  8
0
 10
945.390037
 20
104.000000
 42
0.140796
  0
VERTEX
  8
0
 10
947.052929
 20
104.477729
 42
0.111246
  0
VERTEX
  8
0
 10
948.387931
 20
105.801273
 42
0.060946
  0
VERTEX
  8
0
 10
949.581344
 20
108.294794
 42
0.015303
  0
VERTEX
  8
0
 10
950.889892
 20
112.616020
 42
0.045295
  0
VERTEX
  8
0
 10
951.848369
 20
118.103961
 42
0.120967
  0
VERTEX
  8
0
 10
951.226221
 20
121.999112
 42
0.122108
  0
VERTEX
  8
0
 10
948.876252
 20
125.141154
 42
0.046597
  0
VERTEX
  8
0
 10
944.310489
 20
128.214704
 42
-0.028438
  0
VERTEX
  8
0
 10
940.276428
 20
130.722706
 42
-0.019087
  0
VERTEX
  8
0
 10
935.957103
 20
134.014852
 42
-0.015401
  0
VERTEX
  8
0
 10
931.029881
 20
138.338329
 42
-0.007840
  0
VERTEX
  8
0
 10
925.094997
 20
144.055389
 42
-0.017418
  0
VERTEX
  8
0
 10
921.396311
 20
147.997278
 42
-0.028825
  0
VERTEX
  8
0
 10
918.595589
 20
151.597691
 42
-0.026679
  0
VERTEX
  8
0
 10
916.086260
 20
155.689286
 42
-0.012570
  0
VERTEX
  8
0
 10
913.268659
 20
161.213525
 42
-0.284792
  0
VERTEX
  8
0
 10
913.358763
 20
162.041632
 42
-0.029701
  0
VERTEX
  8
0
 10
914.710143
 20
163.574188
 42
-0.013625
  0
VERTEX
  8
0
 10
917.464290
 20
166.199776
 42
-0.001256
  0
VERTEX
  8
0
 10
924.479627
 20
172.500000
 42
0.000246
  0
VERTEX
  8
0
 10
927.560098
 20
175.255233
 42
0.000335
  0
VERTEX
  8
0
 10
930.333542
 20
177.741663
 42
0.000218
  0
VERTEX
  8
0
 10
932.661452
 20
179.833318
 42
0.003876
  0
VERTEX
  8
0
 10
933.406839
 20
180.514171
 42
-0.008891
  0
VERTEX
  8
0
 10
934.129707
 20
181.161273
 42
-0.000703
  0
VERTEX
  8
0
 10
936.081181
 20
182.841891
 42
-0.000954
  0
VERTEX
  8
0
 10
938.415907
 20
184.839126
 42
-0.000731
  0
VERTEX
  8
0
 10
940.975906
 20
187.014171
 42
0.000623
  0
VERTEX
  8
0
 10
943.537568
 20
189.189675
 42
0.000811
  0
VERTEX
  8
0
 10
945.877386
 20
191.188349
 42
0.000601
  0
VERTEX
  8
0
 10
947.833962
 20
192.869239
 42
0.007442
  0
VERTEX
  8
0
 10
948.567970
 20
193.520636
 42
0.069233
  0
VERTEX
  8
0
 10
950.053879
 20
195.314320
 42
0.048590
  0
VERTEX
  8
0
 10
951.211383
 20
197.671427
 42
0.044100
  0
VERTEX
  8
0
 10
951.985924
 20
200.456690
 42
0.036118
  0
VERTEX
  8
0
 10
952.328006
 20
203.529016
 42
0.030246
  0
VERTEX
  8
0
 10
952.274299
 20
205.993213
 42
0.076475
  0
VERTEX
  8
0
 10
951.858161
 20
207.731934
 42
0.071591
  0
VERTEX
  8
0
 10
950.919755
 20
209.331678
 42
0.024088
  0
VERTEX
  8
0
 10
949.128056
 20
211.367879
 42
0.062593
  0
VERTEX
  8
0
 10
945.454304
 20
214.314447
 42
0.112583
  0
VERTEX
  8
0
 10
941.813634
 20
215.548265
 42
0.125372
  0
VERTEX
  8
0
 10
938.271394
 20
215.024084
 42
0.088854
  0
VERTEX
  8
0
 10
934.881084
 20
212.833749
 42
-0.008708
  0
VERTEX
  8
0
 10
933.987748
 20
212.028761
 42
-0.001031
  0
VERTEX
  8
0
 10
931.969363
 20
210.279994
 42
-0.001232
  0
VERTEX
  8
0
 10
929.560212
 20
208.211677
 42
-0.001010
  0
VERTEX
  8
0
 10
926.975906
 20
206.013039
 42
0.007091
  0
VERTEX
  8
0
 10
924.132102
 20
203.533383
 42
0.004691
  0
VERTEX
  8
0
 10
920.933547
 20
200.608913
 42
0.004721
  0
VERTEX
  8
0
 10
917.878096
 20
197.707821
 42
0.009137
  0
VERTEX
  8
0
 10
915.500000
 20
195.321110
 42
-0.026711
  0
VERTEX
  8
0
 10
911.471486
 20
191.552538
 42
-0.032247
  0
VERTEX
  8
0
 10
907.299245
 20
188.483617
 42
-0.032068
  0
VERTEX
  8
0
 10
903.602485
 20
186.437063
 42
-0.204768
  0
VERTEX
  8
0
 10
901.508391
 20
186.358406
 42
-0.181439
  0
VERTEX
  8
0
 10
900.999667
 20
186.809457
 42
-0.034169
  0
VERTEX
  8
0
 10
900.486256
 20
187.964914
 42
-0.032577
  0
VERTEX
  8
0
 10
900.045616
 20
189.470646
 42
-0.024796
  0
VERTEX
  8
0
 10
899.754797
 20
191.165034
 42
0.063814
  0
VERTEX
  8
0
 10
898.358059
 20
196.684513
 42
0.020482
  0
VERTEX
  8
0
 10
894.933449
 20
204.430749
 42
0.018357
  0
VERTEX
  8
0
 10
890.995041
 20
211.745102
 42
0.105736
  0
VERTEX
  8
0
 10
888.043308
 20
214.969162
 42
0.017958
  0
VERTEX
  8
0
 10
886.006481
 20
216.311981
 42
0.102215
  0
VERTEX
  8
0
 10
884.791262
 20
216.746270
 42
0.083709
  0
VERTEX
  8
0
 10
883.398924
 20
216.707943
 42
0.009903
  0
SEQEND
  0
POLYLINE
  8
0
 66
1
 70
1
  0
VERTEX
  8
0
 10
147.959800
 20
186.697144
 42
0.104772
  0
VERTEX
  8
0
 10
142.715648
 20
182.322786
 42
0.104948
  0
VERTEX
  8
0
 10
139.699912
 20
176.200076
 42
0.103796
  0
VERTEX
  8
0
 10
139.413077
 20
169.323453
 42
0.100337
  0
VERTEX
  8
0
 10
141.899839
 20
162.818989
 42
0.051518
  0
VERTEX
  8
0
 10
144.678523
 20
159.298099
 42
0.072922
  0
VERTEX
  8
0
 10
147.842297
 20
156.872233
 42
0.073626
  0
VERTEX
  8
0
 10
151.545154
 20
155.471822
 42
0.053698
  0
VERTEX
  8
0
 10
155.925794
 20
155.000000
 42
0.113380
  0
VERTEX
  8
0
 10
161.685674
 20
156.323125
 42
0.097032
  0
VERTEX
  8
0
 10
166.669707
 20
160.073237
 42
0.092368
  0
VERTEX
  8
0
 10
170.051432
 20
165.612902
 42
0.091216
  0
VERTEX
  8
0
 10
171.230769
 20
172.023613
 42
0.067075
  0
VERTEX
  8
0
 10
170.551982
 20
177.060732
 42
0.077118
  0
VERTEX
  8
0
 10
168.567232
 20
181.483355
 42
0.078208
  0
VERTEX
  8
0
 10
165.363970
 20
185.049361
 42
0.071652
  0
VERTEX
  8
0
 10
161.127876
 20
187.587318
 42
0.045893
  0
VERTEX
  8
0
 10
157.722581
 20
188.659370
 42
0.070309
  0
VERTEX
  8
0
 10
154.641746
 20
188.884325
 42
0.067046
  0
VERTEX
  8
0
 10
151.515073
 20
188.245994
 42
0.037806
  0
SEQEND
  0
POLYLINE
  8
0
 66
1
 70
1
  0
VERTEX
  8
0
 10
160.810176
 20
181.974365
 42
-0.119718
  0
VERTEX
  8
0
 10
164.859365
 20
177.921834
 42
-0.126899
  0
VERTEX
  8
0
 10
166.487138
 20
172.550213
 42
-0.125571
  0
VERTEX
  8
0
 10
165.319202
 20
167.017648
 42
-0.115842
  0
VERTEX
  8
0
 10
161.623341
 20
162.526279
 42
-0.067782
  0
VERTEX
  8
0
 10
158.025769
 20
160.484343
 42
-0.120391
  0
VERTEX
  8
0
 10
154.670516
 20
160.007205
 42
-0.114547
  0
VERTEX
  8
0
 10
151.358165
 20
161.128717
 42
-0.057771
  0
VERTEX
  8
0
 10
147.882353
 20
163.882353
 42
-0.053450
  0
VERTEX
  8
0
 10
145.297260
 20
167.088286
 42
-0.099566
  0
VERTEX
  8
0
 10
144.084841
 20
170.183637
 42
-0.103089
  0
VERTEX
  8
0
 10
144.184309
 20
173.432371
 42
-0.060370
  0
VERTEX
  8
0
 10
145.548549
 20
177.093882
 42
-0.075628
  0
VERTEX
  8
0
 10
147.308117
 20
179.516232
 42
-0.046394
  0
VERTEX
  8
0
 10
150.014844
 20
181.790940
 42
-0.047054
  0
VERTEX
  8
0
 10
152.980293
 20
183.457984
 42
-0.104904
  0
VERTEX
  8
0
 10
155.500000
 20
183.992524
 42
-0.067996
  0
VERTEX
  8
0
 10
156.493205
 20
183.856829
 42
-0.022911
  0
VERTEX
  8
0
 10
157.884864
 20
183.399690
 42
-0.022306
  0
VERTEX
  8
0
 10
159.396037
 20
182.746835
 42
-0.023780
  0
SEQEND
  0
POLYLINE
  8
0
 66
1
 70
1
  0
VERTEX
  8
0
 10
75.631854
 20
139.755994
 42
0.063238
  0
VERTEX
  8
0
 10
75.015778
 20
135.237644
 42
0.005573
  0
VERTEX
  8
0
 10
75.038182
 20
123.684807
 42
0.003729
  0
VERTEX
  8
0
 10
75.283082
 20
111.764914
 42
0.116370
  0
VERTEX
  8
0
 10
76.035184
 20
108.934259
 42
0.260077
  0
VERTEX
  8
0
 10
78.016277
 20
107.662991
 42
0.009280
  0
VERTEX
  8
0
 10
87.376273
 20
107.259537
 42
0.005765
  0
VERTEX
  8
0
 10
104.527492
 20
107.036760
 42
0.000365
  0
VERTEX
  8
0
 10
154.912739
 20
107.000000
 42
0.000574
  0
VERTEX
  8
0
 10
197.297210
 20
107.048618
 42
0.003806
  0
VERTEX
  8
0
 10
218.448410
 20
107.258132
 42
0.002169
  0
VERTEX
  8
0
 10
232.204999
 20
107.558813
 42
0.216250
  0
VERTEX
  8
0
 10
233.903538
 20
108.383771
 42
0.149600
  0
VERTEX
  8
0
 10
234.432559
 20
109.650080
 42
0.012050
  0
VERTEX
  8
0
 10
234.705065
 20
113.294606
 42
0.012441
  0
VERTEX
  8
0
 10
234.836093
 20
118.401412
 42
0.004541
  0
VERTEX
  8
0
 10
234.775983
 20
125.633771
 42
0.000000
  0
VERTEX
  8
0
 10
234.500000
 20
141.500000
 42
0.000000
  0
VERTEX
  8
0
 10
155.368199
 20
141.755994
 42
0.000000
  0
VERTEX
  8
0
 10
76.236398
 20
142.011988
 42
0.000000
  0
SEQEND
  0
POLYLINE
  8
0
 66
1
 70
1
  0
VERTEX
  8
0
 10
229.500000
 20
125.000000
 42
0.000000
  0
VERTEX
  8
0
 10
229.500000
 20
113.500000
 42
0.000000
  0
VERTEX
  8
0
 10
155.500000
 20
113.500000
 42
0.000000
  0
VERTEX
  8
0
 10
81.500000
 20
113.500000
 42
0.000000
  0
VERTEX
  8
0
 10
81.213003
 20
123.932396
 42
-0.004839
  0
VERTEX
  8
0
 10
81.140040
 20
128.025184
 42
-0.006738
  0
VERTEX
  8
0
 10
81.159563
 20
131.689219
 42
-0.004322
  0
VERTEX
  8
0
 10
81.243754
 20
134.755852
 42
-0.082768
  0
VERTEX
  8
0
 10
81.434096
 20
135.688852
 42
-0.304741
  0
VERTEX
  8
0
 10
82.542713
 20
136.468295
 42
-0.001704
  0
VERTEX
  8
0
 10
96.053327
 20
136.708522
 42
-0.003838
  0
VERTEX
  8
0
 10
116.332202
 20
136.844267
 42
-0.000623
  0
VERTEX
  8
0
 10
155.721093
 20
136.756456
 42
0.000000
  0
VERTEX
  8
0
 10
229.500000
 20
136.500000
 42
0.000000
  0
SEQEND
  0
POLYLINE
  8
0
 66
1
 70
1
  0
VERTEX
  8
0
 10
153.398157
 20
175.595196
 42
0.062432
  0
VERTEX
  8
0
 10
153.210789
 20
174.835161
 42
0.017754
  0
VERTEX
  8
0
 10
153.111571
 20
173.620402
 42
0.017588
  0
VERTEX
  8
0
 10
153.096515
 20
172.228950
 42
0.017790
  0
VERTEX
  8
0
 10
153.179541
 20
170.845196
 42
0.028088
  0
VERTEX
  8
0
 10
153.432706
 20
169.188788
 42
0.099991
  0
VERTEX
  8
0
 10
153.855573
 20
168.208207
 42
0.149216
  0
VERTEX
  8
0
 10
154.519246
 20
167.684473
 42
0.093229
  0
VERTEX
  8
0
 10
155.500000
 20
167.500000
 42
0.100348
  0
VERTEX
  8
0
 10
156.507920
 20
167.704344
 42
0.159854
  0
VERTEX
  8
0
 10
157.164903
 20
168.277177
 42
0.093316
  0
VERTEX
  8
0
 10
157.570148
 20
169.385297
 42
0.020703
  0
VERTEX
  8
0
 10
157.819201
 20
171.398214
 42
0.026592
  0
VERTEX
  8
0
 10
157.867444
 20
173.088655
 42
0.045909
  0
VERTEX
  8
0
 10
157.704182
 20
174.484985
 42
0.058419
  0
VERTEX
  8
0
 10
157.352463
 20
175.529327
 42
0.141977
  0
VERTEX
  8
0
 10
156.819201
 20
176.132901
 42
0.040938
  0
VERTEX
  8
0
 10
155.545568
 20
176.801269
 42
0.140243
  0
VERTEX
  8
0
 10
154.626934
 20
176.914619
 42
0.183734
  0
VERTEX
  8
0
 10
153.936573
 20
176.519972
 42
0.080589
  0
SEQEND
  0
POLYLINE
  8
0
 66
1
 70
1
  0
VERTEX
  8
0
 10
87.910192
 20
126.391787
 42
0.042777
  0
VERTEX
  8
0
 10
87.272795
 20
125.474395
 42
0.179145
  0
VERTEX
  8
0
 10
87.162833
 20
124.822831
 42
0.157948
  0
VERTEX
  8
0
 10
87.500130
 20
124.206362
 42
0.031378
  0
VERTEX
  8
0
 10
88.478876
 20
123.391787
 42
0.150049
  0
VERTEX
  8
0
 10
90.805030
 20
122.585925
 42
0.003684
  0
VERTEX
  8
0
 10
102.241464
 20
122.262727
 42
0.004503
  0
VERTEX
  8
0
 10
120.123250
 20
122.050285
 42
0.000719
  0
VERTEX
  8
0
 10
155.109342
 20
122.000000
 42
0.000877
  0
VERTEX
  8
0
 10
180.037346
 20
122.043749
 42
0.001411
  0
VERTEX
  8
0
 10
201.287495
 20
122.178303
 42
0.000224
  0
VERTEX
  8
0
 10
220.116793
 20
122.359091
 42
0.089326
  0
VERTEX
  8
0
 10
221.418213
 20
122.606989
 42
0.163591
  0
VERTEX
  8
0
 10
222.532901
 20
123.528327
 42
0.139843
  0
VERTEX
  8
0
 10
222.952717
 20
125.000000
 42
0.139843
  0
VERTEX
  8
0
 10
222.532901
 20
126.471673
 42
0.163591
  0
VERTEX
  8
0
 10
221.418213
 20
127.393011
 42
0.089350
  0
VERTEX
  8
0
 10
220.116358
 20
127.640930
 42
0.000220
  0
VERTEX
  8
0
 10
201.120443
 20
127.821697
 42
0.001399
  0
VERTEX
  8
0
 10
179.686719
 20
127.956253
 42
0.000870
  0
VERTEX
  8
0
 10
154.540657
 20
128.000000
 42
0.000573
  0
VERTEX
  8
0
 10
116.072752
 20
127.955909
 42
0.005460
  0
VERTEX
  8
0
 10
99.635902
 20
127.738732
 42
0.006007
  0
VERTEX
  8
0
 10
89.902828
 20
127.386779
 42
0.210508
  0
SEQEND
  0
ENDSEC
  0
EOF
